<?xml version="1.0" encoding="UTF-8"?>
<svg width="96px" height="96px" viewBox="0 0 96 96" version="1.1" xmlns="http://www.w3.org/2000/svg" xmlns:xlink="http://www.w3.org/1999/xlink">
    <!-- Generator: Sketch 43.2 (39069) - http://www.bohemiancoding.com/sketch -->
    <title>Group 15</title>
    <desc>Created with Sketch.</desc>
    <defs>
        <rect id="path-1" x="0" y="0" width="96" height="96"></rect>
        <radialGradient cx="50%" cy="50%" fx="50%" fy="50%" r="49.6332908%" gradientTransform="translate(0.500000,0.500000),scale(0.996697,1.000000),rotate(90.000000),translate(-0.500000,-0.500000)" id="radialGradient-3">
            <stop stop-color="#F3807B" offset="0%"></stop>
            <stop stop-color="#A75978" offset="72.5506218%"></stop>
            <stop stop-color="#A75978" stop-opacity="0" offset="100%"></stop>
        </radialGradient>
    </defs>
    <g id="version4" stroke="none" stroke-width="1" fill="none" fill-rule="evenodd">
        <g id="1.3-treatment" transform="translate(-26.000000, -384.000000)">
            <g id="Group-Copy-3" transform="translate(16.000000, 376.000000)">
                <g id="Group-15" transform="translate(10.000000, 8.000000)">
                    <g id="Page-1">
                        <mask id="mask-2" fill="white">
                            <use xlink:href="#path-1"></use>
                        </mask>
                        <g id="Mask"></g>
                        <rect id="Mask" fill="#FFFFFF" mask="url(#mask-2)" x="0" y="0" width="96" height="96"></rect>
                        <g mask="url(#mask-2)">
                            <g transform="translate(6.114650, 1.218890)">
                                <path d="M5.09920181,37.7856 C5.09920181,37.7856 7.2393292,91.7214968 0.207482069,118.841806 C-5.24311666,139.864008 98.6044247,138.035672 87.34124,119.451252 C82.0545139,110.726435 80.9905649,37.2736661 80.3093929,35.9572645 L52.7934693,8.53223226 L5.09920181,37.7856 Z" id="Stroke-3" stroke="#949AB0" stroke-linecap="round" stroke-linejoin="round"></path>
                                <g id="face" stroke="none" fill-rule="evenodd" transform="translate(4.891720, 0.000000)">
                                    <path d="M40.7639236,4.87556129 C62.7913376,4.87556129 70.9299363,31.6911484 69.7070064,50.7875031 C68.4840764,69.8826389 54.2161529,91.0108837 39.133758,91.0108837 C24.0501401,91.0108837 8.56050955,74.3523097 8.56050955,53.2252837 C8.56050955,32.0970389 14.2667006,4.87556129 40.7639236,4.87556129" id="Fill-11" fill="#FEFEFE"></path>
                                    <path d="M40.7639236,4.87556129 C62.7913376,4.87556129 70.9299363,31.6911484 69.7070064,50.7875031 C68.4840764,69.8826389 54.2161529,91.0108837 39.133758,91.0108837 C24.0501401,91.0108837 8.56050955,74.3523097 8.56050955,53.2252837 C8.56050955,32.0970389 14.2667006,4.87556129 40.7639236,4.87556129 Z" id="Stroke-13" stroke="#949AB0" stroke-linecap="round" stroke-linejoin="round"></path>
                                    <path d="M41.8248148,0.135060802 C41.8248148,0.135060802 14.747923,-2.69032697 4.21971922,17.5042479 C-1.18196231,27.8648156 0.143693742,44.2186671 0.143693742,44.2186671 C0.143693742,44.2186671 39.6846874,35.7876027 46.410802,18.7231382 C51.9139867,35.4828802 75.455388,48.8906737 75.455388,48.8906737 C75.455388,48.8906737 83.7101651,3.18228661 41.8248148,0.135060802" id="Fill-15" fill="#FEFEFE"></path>
                                    <path d="M41.8248148,0.135060802 C41.8248148,0.135060802 14.747923,-2.69032697 4.21971922,17.5042479 C-1.18196231,27.8648156 0.143693742,44.2186671 0.143693742,44.2186671 C0.143693742,44.2186671 39.6846874,35.7876027 46.410802,18.7231382 C51.9139867,35.4828802 75.455388,48.8906737 75.455388,48.8906737 C75.455388,48.8906737 83.7101651,3.18228661 41.8248148,0.135060802 Z" id="Stroke-17" stroke="#949AB0" stroke-linecap="round" stroke-linejoin="round"></path>
                                    <path d="M29.3503185,73.6282888 C29.3503185,73.6282888 36.777172,75.7442824 39.2474904,75.5724189 C41.7361529,75.3993365 48.9196433,73.1334194 48.9196433,73.1334194" id="Stroke-25" stroke="#949AB0" stroke-linecap="round" stroke-linejoin="round"></path>
                                    <path d="M14.6751592,51.3695059 C15.2866242,48.32228 28.1273885,44.2877531 30.2675159,51.9058176" id="Stroke-29" stroke="#949AB0" stroke-linecap="round" stroke-linejoin="round"></path>
                                    <path d="M64.5095541,51.3695059 C63.8980892,48.32228 51.0573248,44.2877531 48.9171975,51.9058176" id="Stroke-33" stroke="#949AB0" stroke-linecap="round" stroke-linejoin="round"></path>
                                    <path d="M47.6942675,42.3331698 C47.6942675,42.3331698 55.9490446,37.2260194 61.4522293,39.6638 C66.955414,42.1015807 66.5481783,41.9272794 66.5481783,41.9272794" id="Stroke-37" stroke="#949AB0" stroke-linecap="round" stroke-linejoin="round"></path>
                                    <path d="M29.9544459,43.4851291 C29.9544459,43.4851291 21.7754904,38.5571555 16.1964841,40.8157593 C11.1090955,42.8756839 11.0063694,43.0792386 11.0063694,43.0792386" id="Stroke-41" stroke="#949AB0" stroke-linecap="round" stroke-linejoin="round"></path>
                                    <path d="M57.2734777,51.0922257 C57.2734777,52.3830305 56.2242038,53.4288384 54.929121,53.4288384 C53.6352611,53.4288384 52.5859873,52.3830305 52.5859873,51.0922257 C52.5859873,49.8014208 53.6352611,48.7556129 54.929121,48.7556129 C56.2242038,48.7556129 57.2734777,49.8014208 57.2734777,51.0922257 Z" id="Stroke-43" stroke="#949AB0" stroke-linecap="round" stroke-linejoin="round"></path>
                                    <path d="M25.4772994,51.0922257 C25.4772994,52.3830305 24.4280255,53.4288384 23.1329427,53.4288384 C21.8390828,53.4288384 20.7898089,52.3830305 20.7898089,51.0922257 C20.7898089,49.8014208 21.8390828,48.7556129 23.1329427,48.7556129 C24.4280255,48.7556129 25.4772994,49.8014208 25.4772994,51.0922257 Z" id="Stroke-45" stroke="#949AB0" stroke-linecap="round" stroke-linejoin="round"></path>
                                </g>
                            </g>
                        </g>
                    </g>
                    <ellipse id="Oval-12" fill="url(#radialGradient-3)" style="mix-blend-mode: lighten;" cx="81.3248408" cy="46.9272774" rx="14.6751592" ry="14.6266839"></ellipse>
                    <ellipse id="Oval-12-Copy" fill="url(#radialGradient-3)" style="mix-blend-mode: lighten;" cx="15.8980892" cy="47.5367226" rx="14.6751592" ry="14.6266839"></ellipse>
                    <ellipse id="Oval-12" fill-opacity="0.1" fill="url(#radialGradient-3)" cx="81.3248408" cy="46.9272774" rx="14.6751592" ry="14.6266839"></ellipse>
                    <ellipse id="Oval-12-Copy" fill-opacity="0.1" fill="url(#radialGradient-3)" cx="15.8980892" cy="47.5367226" rx="14.6751592" ry="14.6266839"></ellipse>
                </g>
            </g>
        </g>
    </g>
</svg>