<?xml version="1.0" encoding="UTF-8"?>
<svg width="180px" height="121px" viewBox="0 0 180 121" version="1.1" xmlns="http://www.w3.org/2000/svg" xmlns:xlink="http://www.w3.org/1999/xlink">
    <!-- Generator: Sketch 44 (41411) - http://www.bohemiancoding.com/sketch -->
    <title>Group 19</title>
    <desc>Created with Sketch.</desc>
    <defs>
        <radialGradient cx="50%" cy="50%" fx="50%" fy="50%" r="50.2341624%" gradientTransform="translate(0.500000,0.500000),scale(1.000000,0.999850),rotate(5.535160),translate(-0.500000,-0.500000)" id="radialGradient-1">
            <stop stop-color="#2A3562" offset="0%"></stop>
            <stop stop-color="#3D679A" offset="48.7224968%"></stop>
            <stop stop-color="#65A1C8" offset="100%"></stop>
        </radialGradient>
        <radialGradient cx="50%" cy="50%" fx="50%" fy="50%" r="50%" gradientTransform="translate(0.500000,0.500000),scale(1.000000,0.999882),rotate(-90.000000),translate(-0.500000,-0.500000)" id="radialGradient-2">
            <stop stop-color="#F3807B" offset="0%"></stop>
            <stop stop-color="#F48678" offset="36.7645886%"></stop>
            <stop stop-color="#F9B763" offset="100%"></stop>
        </radialGradient>
        <radialGradient cx="50%" cy="50%" fx="50%" fy="50%" r="50.1824671%" gradientTransform="translate(0.500000,0.500000),scale(1.000000,0.999872),rotate(4.888112),translate(-0.500000,-0.500000)" id="radialGradient-3">
            <stop stop-color="#7E4477" offset="0%"></stop>
            <stop stop-color="#F3807B" offset="100%"></stop>
        </radialGradient>
    </defs>
    <g id="version4" stroke="none" stroke-width="1" fill="none" fill-rule="evenodd">
        <g id="1.1-treatment-copy" transform="translate(-98.000000, -112.000000)">
            <g id="Group-19" transform="translate(98.000000, 112.000000)">
                <g id="Group-16" transform="translate(0.000000, 55.609756)">
                    <circle id="Oval" fill="#FFFFFF" cx="32.195122" cy="32.195122" r="31.4634146"></circle>
                    <path d="M64.9234124,32.4334981 C64.9234124,50.3121752 50.4323187,64.8052188 32.5558503,64.8052188 C14.6805404,64.8052188 0.189670676,50.3119512 0.189670676,32.4334981 C0.189670676,14.5559602 14.6810078,0.0617772918 32.5558503,0.0617772918 C50.4318514,0.0617772918 64.9234124,14.5557362 64.9234124,32.4334981 Z M61.9965831,32.4334981 C61.9965831,16.172071 48.8152998,2.98860656 32.5558503,2.98860656 C16.2975796,2.98860656 3.11649994,16.1722747 3.11649994,32.4334981 C3.11649994,48.6956165 16.297092,61.8783896 32.5558503,61.8783896 C48.8157874,61.8783896 61.9965831,48.6958201 61.9965831,32.4334981 Z M56.0938732,32.4334981 C56.0938732,45.4347983 45.555998,55.9754594 32.556265,55.9754594 C19.5574513,55.9754594 9.01865685,45.4343348 9.01865685,32.4334981 C9.01865685,19.433816 19.5576792,8.89291943 32.556265,8.89291943 C45.5557701,8.89291943 56.0938732,19.4333526 56.0938732,32.4334981 Z M53.1670439,32.4334981 C53.1670439,21.0496509 43.939182,11.8197487 32.556265,11.8197487 C21.1742389,11.8197487 11.9454861,21.0501427 11.9454861,32.4334981 C11.9454861,43.8180365 21.1740393,53.0486301 32.556265,53.0486301 C43.9393816,53.0486301 53.1670439,43.8185283 53.1670439,32.4334981 Z M47.264334,32.4334981 C47.264334,40.557623 40.6794756,47.1443172 32.5566798,47.1443172 C24.433884,47.1443172 17.8490255,40.557623 17.8490255,32.4334981 C17.8490255,24.3105184 24.4341214,17.7240616 32.5566798,17.7240616 C40.6792382,17.7240616 47.264334,24.3105184 47.264334,32.4334981 Z M44.3375048,32.4334981 C44.3375048,25.9268262 39.0626596,20.6508908 32.5566798,20.6508908 C26.0507,20.6508908 20.7758548,25.9268262 20.7758548,32.4334981 C20.7758548,38.9413624 26.0505098,44.217488 32.5566798,44.217488 C39.0628497,44.217488 44.3375048,38.9413624 44.3375048,32.4334981 Z" id="Combined-Shape" fill="url(#radialGradient-1)" fill-rule="nonzero"></path>
                </g>
                <circle id="Oval-2" fill="#FFFFFF" cx="90" cy="54.8780488" r="53.4146341"></circle>
                <g id="Group-17" transform="translate(35.121951, 0.000000)" fill-rule="nonzero" fill="url(#radialGradient-2)">
                    <path d="M109.268281,55.0171055 C109.268281,85.0868238 84.8937776,109.464608 54.8279083,109.464608 C24.7608761,109.464608 0.386152636,85.0870435 0.386152636,55.0171055 C0.386152636,24.9462564 24.7604045,0.569603364 54.8279083,0.569603364 C84.8942492,0.569603364 109.268281,24.9464761 109.268281,55.0171055 Z M106.341452,55.0171055 C106.341452,26.5628429 83.2777297,3.49643263 54.8279083,3.49643263 C26.3769123,3.49643263 3.3129819,26.5626351 3.3129819,55.0171055 C3.3129819,83.4706766 26.3773956,106.537778 54.8279083,106.537778 C83.2772463,106.537778 106.341452,83.4704687 106.341452,55.0171055 Z M100.438742,55.0171055 C100.438742,80.2115134 80.0181555,100.634848 54.8269405,100.634848 C29.6366377,100.634848 9.21513881,80.211043 9.21513881,55.0171055 C9.21513881,29.823168 29.6366377,9.39936283 54.8269405,9.39936283 C80.0181555,9.39936283 100.438742,29.8226975 100.438742,55.0171055 Z M97.511913,55.0171055 C97.511913,31.4390525 78.4016242,12.3261921 54.8269405,12.3261921 C31.2531548,12.3261921 12.1419681,31.4395371 12.1419681,55.0171055 C12.1419681,78.5946738 31.2531548,97.7080188 54.8269405,97.7080188 C78.4016242,97.7080188 97.511913,78.5951584 97.511913,55.0171055 Z M91.6092031,55.0171055 C91.6092031,75.3334377 75.1411509,91.803706 54.8273553,91.803706 C34.5135597,91.803706 18.0455075,75.3334377 18.0455075,55.0171055 C18.0455075,34.7007732 34.5135597,18.230505 54.8273553,18.230505 C75.1411509,18.230505 91.6092031,34.7007732 91.6092031,55.0171055 Z M88.6823738,55.0171055 C88.6823738,36.3171282 73.5246196,21.1573342 54.8273553,21.1573342 C36.130091,21.1573342 20.9723367,36.3171282 20.9723367,55.0171055 C20.9723367,73.7170827 36.130091,88.8768767 54.8273553,88.8768767 C73.5246196,88.8768767 88.6823738,73.7170827 88.6823738,55.0171055 Z M82.7795257,55.0171055 C82.7795257,70.456279 70.2644737,82.9725638 54.8276318,82.9725638 C39.3896329,82.9725638 26.8743554,70.4565046 26.8743554,55.0171055 C26.8743554,39.5777063 39.3896329,27.0616471 54.8276318,27.0616471 C70.2644737,27.0616471 82.7795257,39.5779319 82.7795257,55.0171055 Z M79.8526964,55.0171055 C79.8526964,41.1943106 68.647966,29.9884764 54.8276318,29.9884764 C41.006117,29.9884764 29.8011847,41.1941086 29.8011847,55.0171055 C29.8011847,68.8401023 41.006117,80.0457346 54.8276318,80.0457346 C68.647966,80.0457346 79.8526964,68.8399004 79.8526964,55.0171055 Z" id="Combined-Shape"></path>
                </g>
                <g id="Group-18" transform="translate(114.878049, 54.878049)">
                    <circle id="Oval" fill="#FFFFFF" cx="32.195122" cy="32.9268293" r="31.4634146"></circle>
                    <path d="M64.9307328,32.9893574 C64.9307328,50.8680345 50.4396392,65.3610782 32.5631707,65.3610782 C14.6876174,65.3610782 0.195608632,50.8675671 0.195608632,32.9893574 C0.195608632,15.1111478 14.6876174,0.617636669 32.5631707,0.617636669 C50.4396392,0.617636669 64.9307328,15.1106804 64.9307328,32.9893574 Z M62.0039036,32.9893574 C62.0039036,16.7270354 48.8231078,3.54446594 32.5631707,3.54446594 C16.3041285,3.54446594 3.1224379,16.727523 3.1224379,32.9893574 C3.1224379,49.2511919 16.3041285,62.4342489 32.5631707,62.4342489 C48.8231078,62.4342489 62.0039036,49.2516795 62.0039036,32.9893574 Z M56.1011937,32.9893574 C56.1011937,45.9899588 45.5626346,56.5299361 32.5635855,56.5299361 C19.5645364,56.5299361 9.0259773,45.9899588 9.0259773,32.9893574 C9.0259773,19.988756 19.5645364,9.44877881 32.5635855,9.44877881 C45.5626346,9.44877881 56.1011937,19.988756 56.1011937,32.9893574 Z M53.1743644,32.9893574 C53.1743644,21.6051111 43.9461032,12.3756081 32.5635855,12.3756081 C21.1810677,12.3756081 11.9528066,21.6051111 11.9528066,32.9893574 C11.9528066,44.3736038 21.1810677,53.6031068 32.5635855,53.6031068 C43.9461032,53.6031068 53.1743644,44.3736038 53.1743644,32.9893574 Z M46.8938735,29.6785122 C48.7223532,37.5937775 43.7879909,45.4935237 35.8742381,47.3206105 C27.9596617,49.1509587 20.0606987,44.2157576 18.2338504,36.2993731 C16.405399,28.3842299 21.3382044,20.4859308 29.2524266,18.6572 C37.1676697,16.8285881 45.0653313,21.7629761 46.8938735,29.6785122 Z M44.0421453,30.3372806 C42.5774105,23.9966224 36.2514003,20.044188 29.9113027,21.5089034 C23.5721166,22.9736922 19.6209174,29.3002651 21.0856532,35.6409279 C22.5490092,41.9821704 28.875707,45.9350343 35.2153014,44.4689213 C41.5542902,43.0054078 45.506797,36.6775789 44.0421453,30.3372806 Z" id="Combined-Shape" fill="url(#radialGradient-3)" fill-rule="nonzero"></path>
                </g>
            </g>
        </g>
    </g>
</svg>