<?xml version="1.0" encoding="UTF-8"?>
<svg width="72px" height="150px" viewBox="0 0 72 150" version="1.1" xmlns="http://www.w3.org/2000/svg" xmlns:xlink="http://www.w3.org/1999/xlink">
    <!-- Generator: Sketch 44 (41411) - http://www.bohemiancoding.com/sketch -->
    <title>pen-red</title>
    <desc>Created with Sketch.</desc>
    <defs>
        <linearGradient x1="50%" y1="106.984497%" x2="50%" y2="-4.07593252%" id="linearGradient-1">
            <stop stop-color="#7E4477" offset="0%"></stop>
            <stop stop-color="#F3807B" offset="100%"></stop>
        </linearGradient>
    </defs>
    <g id="version3" stroke="none" stroke-width="1" fill="none" fill-rule="evenodd">
        <g id="0.4.3device" transform="translate(-158.000000, -254.000000)">
            <g id="pen-red" transform="translate(160.000000, 256.000000)">
                <path d="M1.20529184,24.2995765 C1.20529184,24.2995765 17.3390714,14.9575684 22.38126,9.54759471 C27.4234485,4.13762099 34.850983,-0.591632593 40.8200837,0.197972296 C46.7891845,0.987577186 58.6554968,5.51352845 65.6364003,33.8235668 C72.6173038,62.1336052 59.7085976,81.403924 52.4248416,98.9366551 C45.1410856,116.469386 41.9091291,140.80475 41.9091291,143.843625 C41.9091291,146.8825 38.1193657,146.079189 36.4585486,144.700236 C34.7977315,143.321283 11.4479781,115.902881 11.4479781,99.3265083 C11.4479781,82.7501356 21.4076962,75.1061207 29.6053632,53.9200392 C37.8030302,32.7339578 31.264169,25.9092436 31.264169,25.9092436 C31.264169,25.9092436 27.2077808,24.4236899 20.2788823,27.6491155 C13.3499837,30.8745411 3.72753327,30.3598131 1.20529184,29.0044643 C-1.31694959,27.6491155 1.20529184,24.2995765 1.20529184,24.2995765 Z" id="Path" stroke="url(#linearGradient-1)" stroke-width="4" fill="#FFFFFF"></path>
                <path d="M55.8000227,40.9356753 L55.8000227,43.5501797 C54.9221501,44.8111781 54.3543066,46.9932876 54.3543066,49.5114446 C54.3543066,53.762345 55.9724795,56.8205522 57.9685968,56.2753421 C59.9647142,55.6563474 61.5828871,52.4847301 61.5828871,49.258136 C61.5828871,47.3467597 61.0150436,45.5632 60.137171,44.2885179 L60.137171,42.0673721 C61.6406362,43.8001974 62.6671742,46.4599767 62.6671742,49.2125528 C62.6671742,53.1529134 60.5635494,57.3033841 57.9685968,58.3392089 C55.3736442,59.2163298 53.2700195,55.2132923 53.2700195,49.541854 C53.2700195,45.5800172 54.2965575,42.2924258 55.8000227,40.9356753 Z M56.8843098,40.1392165 C56.8843098,39.3504351 57.2089672,38.8175184 57.6064136,38.9512987 L58.3307801,39.2046962 C58.729587,39.349485 59.0528839,40.0591608 59.0528839,40.7866511 L59.0528839,43.4257379 C59.0528839,44.1531192 58.7282265,44.6928226 58.3307801,44.6331161 L57.6064136,44.528402 C57.2076066,44.4730128 56.8843098,43.7899745 56.8843098,43.001075 L56.8843098,40.1392165 Z" id="Combined-Shape" fill="#F3807B"></path>
            </g>
        </g>
    </g>
</svg>