<?xml version="1.0" encoding="UTF-8"?>
<svg width="366px" height="416px" viewBox="0 0 366 416" version="1.1" xmlns="http://www.w3.org/2000/svg" xmlns:xlink="http://www.w3.org/1999/xlink">
    <!-- Generator: Sketch 43.2 (39069) - http://www.bohemiancoding.com/sketch -->
    <title>woman-front</title>
    <desc>Created with Sketch.</desc>
    <defs>
        <rect id="path-1" x="0" y="0" width="375" height="416"></rect>
        <path d="M79.6978335,57.2167969 C79.6978335,57.2167969 82.9286027,138.88916 72.3132181,179.956055 C64.0849104,211.788896 220.854757,209.020342 203.85168,180.878906 C195.870757,167.667363 194.264603,56.4416016 193.236295,54.4482422 L151.697834,12.9199219 L79.6978335,57.2167969 Z" id="path-3"></path>
        <filter x="-5.3%" y="-2.6%" width="110.5%" height="107.4%" filterUnits="objectBoundingBox" id="filter-4">
            <feOffset dx="0" dy="2" in="SourceAlpha" result="shadowOffsetOuter1"></feOffset>
            <feGaussianBlur stdDeviation="2" in="shadowOffsetOuter1" result="shadowBlurOuter1"></feGaussianBlur>
            <feColorMatrix values="0 0 0 0 0.749019608   0 0 0 0 0.760784314   0 0 0 0 0.815686275  0 0 0 1 0" type="matrix" in="shadowBlurOuter1"></feColorMatrix>
        </filter>
        <path d="M274.789441,462.656865 C274.174672,450.351563 266.790056,434.356699 260.634979,420.205693 C253.250364,340.840459 240.327287,330.997324 237.251595,309.463506 C234.174056,287.929688 234.788825,214.101563 228.635595,198.721318 C223.830056,186.711328 212.634979,176.572881 199.097133,172.881475 C185.559287,169.190068 157.250364,153.193359 157.250364,153.193359 L157.250364,129.199219 L141.86821,126.772119 L141.866364,125.507813 L137.865749,126.139043 L133.866979,125.507813 L133.865133,126.772119 L118.481133,129.199219 L118.481133,153.193359 C118.481133,153.193359 90.1740562,169.190068 76.63621,172.881475 C63.0965177,176.572881 51.903287,186.711328 47.0977485,198.721318 C40.9426716,214.101563 41.559287,287.929688 38.4817485,309.463506 C35.40421,330.997324 22.4811331,340.840459 15.0965177,420.205693 C8.94328697,434.356699 1.55867158,450.351563 0.943902353,462.656865 C0.327286969,474.962168 -2.13363611,503.876953 4.63621005,500.802012 C16.7026716,495.316582 10.7894408,460.811162 23.7125177,457.119756 C28.4829793,455.757627 18.7888254,482.9596 25.5586716,484.190684 C29.0885177,484.832988 38.4817485,460.196543 34.7894408,442.354131 C34.7894408,442.354131 31.0971331,431.894531 35.40421,422.666016 C39.7131331,413.4375 65.559287,330.380859 65.559287,321.152344 C65.559287,311.923828 69.9235947,276.569385 72.9439024,261.475225 C74.7900562,252.246709 77.2509793,239.326787 81.5580562,239.941406 C85.8669793,240.557871 95.7125177,323.614512 94.4811331,332.843027 C93.2515947,342.071543 71.0977485,386.983037 65.559287,409.746094 C61.1857485,427.719551 56.943287,463.271484 64.9426716,506.339121 C72.9439024,549.404912 86.4817485,603.544922 85.8669793,622.618418 C85.2503639,641.690068 81.5580562,696.446543 87.0965177,723.515625 C92.6349793,750.586553 108.020825,803.497324 104.943287,820.723271 C101.865749,837.949219 87.7131331,842.25709 88.3279024,850.254521 C88.7635947,855.909756 121.673133,858.897949 126.482364,852.714844 C130.789441,847.177734 127.446056,838.314668 130.789441,834.257813 C134.825133,829.364854 131.106979,817.113076 130.174672,810.263672 C129.458364,805.005264 132.020825,751.201172 128.943287,699.521484 C127.806056,680.431377 124.63621,659.53248 127.711902,644.150391 C131.998672,622.72916 133.250364,558.018809 132.635595,538.330693 C132.015287,518.452471 131.119902,470.344219 130.861441,456.182139 C130.831902,454.578223 132.452825,453.5354 133.942672,454.133408 C134.963595,454.543154 136.189441,454.855078 137.559287,454.855078 C138.969749,454.855078 140.487287,454.393652 141.777749,453.854707 C143.265749,453.236396 144.905133,454.299521 144.875595,455.912666 C144.626364,469.718525 143.721749,518.323271 143.097749,538.330693 C142.481133,558.018809 143.734672,622.72916 148.019595,644.150391 C151.097133,659.53248 147.925441,680.431377 146.790056,699.521484 C143.712518,751.201172 146.274979,805.005264 145.558672,810.263672 C144.626364,817.113076 140.90821,829.364854 144.943902,834.257813 C148.287287,838.314668 144.943902,847.177734 149.250979,852.714844 C154.058364,858.897949 186.969749,855.909756 187.405441,850.254521 C188.02021,842.25709 173.865749,837.949219 170.790056,820.723271 C167.712518,803.497324 183.096518,750.586553 188.634979,723.515625 C194.173441,696.446543 190.481133,641.690068 189.866364,622.618418 C189.251595,603.544922 202.789441,549.404912 210.788825,506.339121 C218.790056,463.271484 214.547595,427.719551 210.174056,409.746094 C204.635595,386.983037 182.481749,342.071543 181.250364,332.843027 C180.020825,323.614512 189.866364,240.557871 194.173441,239.941406 C198.482364,239.326787 202.174672,252.246709 202.789441,261.475225 C203.814056,276.83332 210.174056,311.923828 210.174056,321.152344 C210.174056,330.380859 236.02021,413.4375 240.327287,422.666016 C244.63621,431.894531 240.943902,442.354131 240.943902,442.354131 C237.251595,460.196543 246.642979,484.832988 250.174672,484.190684 C256.942672,482.9596 247.250364,455.757627 252.020825,457.119756 C264.943902,460.811162 259.028825,495.316582 271.097133,500.802012 C277.866979,503.876953 275.40421,474.962168 274.789441,462.656865" id="path-5"></path>
        <filter x="-2.5%" y="-0.7%" width="105.1%" height="101.9%" filterUnits="objectBoundingBox" id="filter-6">
            <feOffset dx="0" dy="2" in="SourceAlpha" result="shadowOffsetOuter1"></feOffset>
            <feGaussianBlur stdDeviation="2" in="shadowOffsetOuter1" result="shadowBlurOuter1"></feGaussianBlur>
            <feColorMatrix values="0 0 0 0 0.749019608   0 0 0 0 0.760784314   0 0 0 0 0.815686275  0 0 0 1 0" type="matrix" in="shadowBlurOuter1"></feColorMatrix>
        </filter>
        <linearGradient x1="50%" y1="100%" x2="50%" y2="3.061617e-15%" id="linearGradient-7">
            <stop stop-color="#F3807B" offset="0%"></stop>
            <stop stop-color="#F9B763" offset="100%"></stop>
        </linearGradient>
    </defs>
    <g id="version4" stroke="none" stroke-width="1" fill="none" fill-rule="evenodd">
        <g id="1.1.1-treatment" transform="translate(-5.000000, -180.000000)">
            <g id="woman-front" transform="translate(0.000000, 180.000000)">
                <mask id="mask-2" fill="white">
                    <use xlink:href="#path-1"></use>
                </mask>
                <g id="Mask"></g>
                <g mask="url(#mask-2)">
                    <g transform="translate(5.000000, -11.000000)">
                        <g id="body-copy">
                            <rect id="Rectangle-18" fill="#FEF7EF" x="0" y="0" width="366" height="885.9375"></rect>
                            <g id="Page-1" transform="translate(43.230769, 14.765625)">
                                <g id="Fill-1">
                                    <use fill="black" fill-opacity="1" filter="url(#filter-4)" xlink:href="#path-3"></use>
                                    <use fill="#FEFEFE" fill-rule="evenodd" xlink:href="#path-3"></use>
                                </g>
                                <path d="M79.6978335,57.2167969 C79.6978335,57.2167969 82.9286027,138.88916 72.3132181,179.956055 C64.0849104,211.788896 220.854757,209.020342 203.85168,180.878906 C195.870757,167.667363 194.264603,56.4416016 193.236295,54.4482422 L151.697834,12.9199219 L79.6978335,57.2167969 Z" id="Stroke-3" stroke="#000000" stroke-width="2" stroke-linecap="round" stroke-linejoin="round"></path>
                                <g id="Fill-5">
                                    <use fill="black" fill-opacity="1" filter="url(#filter-6)" xlink:href="#path-5"></use>
                                    <use fill="#FEFEFE" fill-rule="evenodd" xlink:href="#path-5"></use>
                                </g>
                                <path d="M274.789441,462.656865 C274.174672,450.351563 266.790056,434.356699 260.634979,420.205693 C253.250364,340.840459 240.327287,330.997324 237.251595,309.463506 C234.174056,287.929688 234.788825,214.101563 228.635595,198.721318 C223.830056,186.711328 212.634979,176.572881 199.097133,172.881475 C185.559287,169.190068 157.250364,153.193359 157.250364,153.193359 L157.250364,129.199219 L141.86821,126.772119 L141.866364,125.507813 L137.865749,126.139043 L133.866979,125.507813 L133.865133,126.772119 L118.481133,129.199219 L118.481133,153.193359 C118.481133,153.193359 90.1740562,169.190068 76.63621,172.881475 C63.0965177,176.572881 51.903287,186.711328 47.0977485,198.721318 C40.9426716,214.101563 41.559287,287.929688 38.4817485,309.463506 C35.40421,330.997324 22.4811331,340.840459 15.0965177,420.205693 C8.94328697,434.356699 1.55867158,450.351563 0.943902353,462.656865 C0.327286969,474.962168 -2.13363611,503.876953 4.63621005,500.802012 C16.7026716,495.316582 10.7894408,460.811162 23.7125177,457.119756 C28.4829793,455.757627 18.7888254,482.9596 25.5586716,484.190684 C29.0885177,484.832988 38.4817485,460.196543 34.7894408,442.354131 C34.7894408,442.354131 31.0971331,431.894531 35.40421,422.666016 C39.7131331,413.4375 65.559287,330.380859 65.559287,321.152344 C65.559287,311.923828 69.9235947,276.569385 72.9439024,261.475225 C74.7900562,252.246709 77.2509793,233.326787 81.5580562,233.941406 C85.8669793,234.557871 95.7125177,323.614512 94.4811331,332.843027 C93.2515947,342.071543 71.0977485,386.983037 65.559287,409.746094 C61.1857485,427.719551 56.943287,463.271484 64.9426716,506.339121 C72.9439024,549.404912 86.4817485,603.544922 85.8669793,622.618418 C85.2503639,641.690068 81.5580562,696.446543 87.0965177,723.515625 C92.6349793,750.586553 108.020825,803.497324 104.943287,820.723271 C101.865749,837.949219 87.7131331,842.25709 88.3279024,850.254521 C88.7635947,855.909756 121.673133,858.897949 126.482364,852.714844 C130.789441,847.177734 127.446056,838.314668 130.789441,834.257813 C134.825133,829.364854 131.106979,817.113076 130.174672,810.263672 C129.458364,805.005264 132.020825,751.201172 128.943287,699.521484 C127.806056,680.431377 124.63621,659.53248 127.711902,644.150391 C131.998672,622.72916 133.250364,558.018809 132.635595,538.330693 C132.015287,518.452471 131.119902,470.344219 130.861441,456.182139 C130.831902,454.578223 132.452825,453.5354 133.942672,454.133408 C134.963595,454.543154 136.189441,454.855078 137.559287,454.855078 C138.969749,454.855078 140.487287,454.393652 141.777749,453.854707 C143.265749,453.236396 144.905133,454.299521 144.875595,455.912666 C144.626364,469.718525 143.721749,518.323271 143.097749,538.330693 C142.481133,558.018809 143.734672,622.72916 148.019595,644.150391 C151.097133,659.53248 147.925441,680.431377 146.790056,699.521484 C143.712518,751.201172 146.274979,805.005264 145.558672,810.263672 C144.626364,817.113076 140.90821,829.364854 144.943902,834.257813 C148.287287,838.314668 144.943902,847.177734 149.250979,852.714844 C154.058364,858.897949 186.969749,855.909756 187.405441,850.254521 C188.02021,842.25709 173.865749,837.949219 170.790056,820.723271 C167.712518,803.497324 183.096518,750.586553 188.634979,723.515625 C194.173441,696.446543 190.481133,641.690068 189.866364,622.618418 C189.251595,603.544922 202.789441,549.404912 210.788825,506.339121 C218.790056,463.271484 214.547595,427.719551 210.174056,409.746094 C204.635595,386.983037 182.481749,342.071543 181.250364,332.843027 C180.020825,323.614512 189.866364,234.557871 194.173441,233.941406 C198.482364,233.326787 202.174672,252.246709 202.789441,261.475225 C203.814056,276.83332 210.174056,311.923828 210.174056,321.152344 C210.174056,330.380859 236.02021,413.4375 240.327287,422.666016 C244.63621,431.894531 240.943902,442.354131 240.943902,442.354131 C237.251595,460.196543 246.642979,484.832988 250.174672,484.190684 C256.942672,482.9596 247.250364,455.757627 252.020825,457.119756 C264.943902,460.811162 259.028825,495.316582 271.097133,500.802012 C277.866979,503.876953 275.40421,474.962168 274.789441,462.656865 Z" id="Stroke-7" stroke="#000000" stroke-width="2" stroke-linecap="round" stroke-linejoin="round"></path>
                                <path d="M140.922462,7.3828125 C174.175385,7.3828125 186.461538,47.9882813 184.615385,76.9049121 C182.769231,105.819697 161.230154,137.813115 138.461538,137.813115 C115.691077,137.813115 92.3076923,112.587891 92.3076923,80.5963184 C92.3076923,48.6029004 100.921846,7.3828125 140.922462,7.3828125" id="Fill-11" fill="#FEFEFE"></path>
                                <path d="M140.922462,7.3828125 C174.175385,7.3828125 186.461538,47.9882813 184.615385,76.9049121 C182.769231,105.819697 161.230154,137.813115 138.461538,137.813115 C115.691077,137.813115 92.3076923,112.587891 92.3076923,80.5963184 C92.3076923,48.6029004 100.921846,7.3828125 140.922462,7.3828125 Z" id="Stroke-13" stroke="#000000" stroke-width="2" stroke-linecap="round" stroke-linejoin="round"></path>
                                <path d="M142.523999,0.204515648 C142.523999,0.204515648 101.648307,-4.0738242 85.7547684,26.5057852 C77.6003069,42.1942617 79.6015377,66.9580606 79.6015377,66.9580606 C79.6015377,66.9580606 139.29323,54.1913321 149.447076,28.3514883 C157.754768,53.7299063 193.29323,74.0326406 193.29323,74.0326406 C193.29323,74.0326406 205.754768,4.81877346 142.523999,0.204515648" id="Fill-15" fill="#FEFEFE"></path>
                                <path d="M142.523999,0.204515648 C142.523999,0.204515648 101.648307,-4.0738242 85.7547684,26.5057852 C77.6003069,42.1942617 79.6015377,66.9580606 79.6015377,66.9580606 C79.6015377,66.9580606 139.29323,54.1913321 149.447076,28.3514883 C157.754768,53.7299063 193.29323,74.0326406 193.29323,74.0326406 C193.29323,74.0326406 205.754768,4.81877346 142.523999,0.204515648 Z" id="Stroke-17" stroke="#000000" stroke-width="2" stroke-linecap="round" stroke-linejoin="round"></path>
                                <path d="M123.692308,111.491543 C123.692308,111.491543 134.904,114.695684 138.633231,114.435439 C142.390154,114.17335 153.234462,110.742188 153.234462,110.742188" id="Stroke-25" stroke="#000000" stroke-width="2" stroke-linecap="round" stroke-linejoin="round"></path>
                                <path d="M101.538462,77.7862091 C102.461538,73.1719513 121.846154,67.0626739 125.076923,78.5983185" id="Stroke-29" stroke="#000000" stroke-width="2" stroke-linecap="round" stroke-linejoin="round"></path>
                                <path d="M176.769231,77.7862091 C175.846154,73.1719513 156.461538,67.0626739 153.230769,78.5983185" id="Stroke-33" stroke="#000000" stroke-width="2" stroke-linecap="round" stroke-linejoin="round"></path>
                                <path d="M151.384615,64.1029487 C151.384615,64.1029487 163.846154,56.3694526 172.153846,60.0608589 C180.461538,63.7522651 179.846769,63.4883296 179.846769,63.4883296" id="Stroke-37" stroke="#000000" stroke-width="2" stroke-linecap="round" stroke-linejoin="round"></path>
                                <path d="M124.604308,65.8473016 C124.604308,65.8473016 112.257231,58.3851238 103.835077,61.8052117 C96.1550769,64.92445 96,65.2326824 96,65.2326824" id="Stroke-41" stroke="#000000" stroke-width="2" stroke-linecap="round" stroke-linejoin="round"></path>
                                <path d="M165.845538,77.3663379 C165.845538,79.3209375 164.261538,80.9045508 162.306462,80.9045508 C160.353231,80.9045508 158.769231,79.3209375 158.769231,77.3663379 C158.769231,75.4117383 160.353231,73.828125 162.306462,73.828125 C164.261538,73.828125 165.845538,75.4117383 165.845538,77.3663379 Z" id="Stroke-43" stroke="#000000" stroke-width="2" stroke-linecap="round" stroke-linejoin="round"></path>
                                <path d="M117.845538,77.3663379 C117.845538,79.3209375 116.261538,80.9045508 114.306462,80.9045508 C112.353231,80.9045508 110.769231,79.3209375 110.769231,77.3663379 C110.769231,75.4117383 112.353231,73.828125 114.306462,73.828125 C116.261538,73.828125 117.845538,75.4117383 117.845538,77.3663379 Z" id="Stroke-45" stroke="#000000" stroke-width="2" stroke-linecap="round" stroke-linejoin="round"></path>
                            </g>
                            <path d="M128.792368,263.799211 C128.792368,263.799211 135.540077,253.143741 150.666016,252.738281 C165.791954,252.332821 183.903622,266.32192 183.903622,266.32192 C183.903622,266.32192 200.951909,252.738281 212.673828,252.738281 C224.395748,252.738281 234.628906,262.32192 234.628906,262.32192 L228.398407,295.924984 C228.398407,295.924984 208.776805,299.924984 183.496094,299.924984 C158.215382,299.924984 132.836335,295.924984 132.836335,295.924984 L128.792368,263.799211 Z" id="Path-15" stroke="#979797" fill="#FFFFFF"></path>
                            <path d="M110.279569,417.824255 C110.279569,417.824255 157.880477,423.849215 181.335311,423.726562 C204.790145,423.60391 250.525737,417.090866 250.525737,417.090866 L254.64208,431.368432 C254.64208,431.368432 231.582031,439.333984 215.034856,451.708134 C198.48768,464.082283 188.690433,474.490017 188.690433,474.490017 C187.916739,475.282798 186.39693,475.925474 185.29216,475.925474 L176.593078,475.925474 C175.489959,475.925474 174.005739,475.258206 173.254918,474.433408 C173.254918,474.433408 162.894531,462.289062 144.469952,449.862431 C126.045373,437.435799 108.028542,431.410284 108.028542,431.410284 L110.279569,417.824255 Z" id="Path-16" stroke="#979797" fill="#FFFFFF"></path>
                        </g>
                        <g id="cover-color" style="mix-blend-mode: lighten;">
                            <rect id="Rectangle-14" fill="#949AB0" x="0" y="0" width="366" height="873.938347"></rect>
                            <circle id="Oval-2" fill="url(#linearGradient-7)" cx="181" cy="124" r="116"></circle>
                        </g>
                    </g>
                </g>
            </g>
        </g>
    </g>
</svg>