<?xml version="1.0" encoding="UTF-8"?>
<svg width="142px" height="423px" viewBox="0 0 142 423" version="1.1" xmlns="http://www.w3.org/2000/svg" xmlns:xlink="http://www.w3.org/1999/xlink">
    <!-- Generator: Sketch 43.2 (39069) - http://www.bohemiancoding.com/sketch -->
    <title>woman-front</title>
    <desc>Created with Sketch.</desc>
    <defs>
        <path d="M94.7274706,33.0426809 C95.2312787,45.804134 96.1409026,73.688791 98.3637615,84.215655 C104.380503,86.2416006 109.292604,90.9057788 111.476356,96.3700888 C114.452099,103.817182 114.154793,139.56466 115.64311,149.991306 C117.130535,160.417952 123.38022,165.183984 126.951469,203.612523 C129.928104,210.464421 133.499353,218.209112 133.796659,224.167323 C134.093965,230.125534 135.284977,244.126034 132.011035,242.637151 C126.174722,239.981114 129.035292,223.273636 122.785607,221.486262 C120.478581,220.826721 125.165844,233.99788 121.892795,234.593969 C120.184846,234.904972 115.64311,222.976038 117.428735,214.336767 C117.428735,214.336767 119.214359,209.272243 117.130535,204.803808 C115.047605,200.335373 102.548235,160.11946 102.548235,155.651026 C102.548235,151.182591 99.4724975,134.191814 98.9769868,126.755445 C98.6796804,122.28701 96.8940562,113.031202 94.8102327,113.3288 C92.7273021,113.627291 89.9659351,156.843204 90.560548,161.311639 C91.1560537,165.780073 99.8697989,187.526158 102.548235,198.547999 C104.663307,207.250723 106.714989,224.464921 102.845542,245.318212 C98.9769868,266.17061 92.4299957,292.385129 92.7273021,301.62049 C93.0246085,310.854958 94.8102327,337.367968 92.1317964,350.474781 C89.4533601,363.582488 82.0135568,389.201812 83.5018746,397.542592 C84.9892996,405.883372 91.83449,407.969238 91.5371835,411.841583 C91.3264799,414.57984 75.4103185,416.026719 73.0854358,413.032868 C71.0025051,410.351807 72.6193878,406.060322 71.0025051,404.095999 C69.0508178,401.726834 70.8489414,395.79454 71.2998115,392.478068 C71.6462226,389.931954 70.4069994,363.880086 71.8953172,338.856851 C72.4443967,329.613447 73.9782479,319.494229 72.4899301,312.046242 C70.4177132,301.674112 69.8114938,270.341447 70.109693,260.808488 C70.4114635,251.120922 70.8489414,227.586569 70.9694711,220.901791 C70.9837561,220.120709 70.1909389,219.605945 69.4713323,219.90533 C68.8472567,220.166287 68.1133651,220.389708 67.4312567,220.389708 C66.7687901,220.389708 66.1759629,220.238675 65.6822378,220.040277 C64.9617384,219.750722 64.1778494,220.255655 64.1921344,221.032269 C64.3171281,227.889529 64.7501419,251.18348 65.0501268,260.808488 C65.3474332,270.341447 64.7421066,301.674112 62.6689969,312.046242 C61.1815719,319.494229 62.7145303,329.613447 63.2645026,338.856851 C64.7528204,363.880086 63.5135972,389.931954 63.8600083,392.478068 C64.3108784,395.79454 66.109002,401.726834 64.1573147,404.095999 C62.540432,406.060322 64.1573147,410.351807 62.0743841,413.032868 C59.7486085,416.026719 43.8333399,414.57984 43.6226363,411.841583 C43.3253298,407.969238 50.1696274,405.883372 51.6579452,397.542592 C53.146263,389.201812 45.7055669,363.582488 43.0271306,350.474781 C40.3486943,337.367968 42.1343185,310.854958 42.4325177,301.62049 C42.7298242,292.385129 36.182833,266.17061 32.3133853,245.318212 C28.4448305,224.464921 30.4965127,207.250723 32.6115846,198.547999 C35.2900209,187.526158 44.0037661,165.780073 44.598379,161.311639 C45.1938847,156.843204 42.4325177,114.627291 40.3486943,114.3288 C38.2657636,114.031202 37.0756451,122.28701 36.182833,126.755445 C34.7221924,134.064017 32.6115846,151.182591 32.6115846,155.651026 C32.6115846,160.11946 20.1122151,200.335373 18.0283916,204.803808 C15.945461,209.272243 17.7310852,214.336767 17.7310852,214.336767 C19.5167094,222.976038 14.9740814,234.904972 13.2670247,234.593969 C9.99308266,233.99788 14.681239,220.826721 12.3742126,221.486262 C6.12452781,223.273636 8.98420498,239.981114 3.14878506,242.637151 C-0.125156933,244.126034 1.0649616,230.125534 1.36316085,224.167323 C1.66046728,218.209112 5.2317157,210.464421 8.20745845,203.612523 C11.7787069,165.183984 18.0283916,160.417952 19.5167094,149.991306 C21.0050272,139.56466 20.7068279,103.817182 23.6834635,96.3700888 C25.8399958,90.97389 30.6565156,86.3580005 36.5714188,84.2926398 C39.9186642,68.2361131 39.7959415,42.9148639 39.5791835,32.531563 C39.4630935,32.5575243 39.4025091,32.5704979 39.4025091,32.5704979 C39.4025091,32.5704979 38.4347008,20.5799 42.3782518,12.9835609 C50.0644712,-1.82304453 69.8322241,0.248521826 69.8322241,0.248521826 C94.8318734,2.07510182 95.3651004,24.8081179 94.7274706,33.0426809 Z" id="path-1"></path>
        <filter x="-5.2%" y="-1.2%" width="110.5%" height="103.4%" filterUnits="objectBoundingBox" id="filter-2">
            <feOffset dx="0" dy="2" in="SourceAlpha" result="shadowOffsetOuter1"></feOffset>
            <feGaussianBlur stdDeviation="2" in="shadowOffsetOuter1" result="shadowBlurOuter1"></feGaussianBlur>
            <feColorMatrix values="0 0 0 0 0.749019608   0 0 0 0 0.760784314   0 0 0 0 0.815686275  0 0 0 1 0" type="matrix" in="shadowBlurOuter1"></feColorMatrix>
        </filter>
    </defs>
    <g id="version4" stroke="none" stroke-width="1" fill="none" fill-rule="evenodd">
        <g id="1.1-treatment" transform="translate(-113.000000, -174.000000)">
            <g id="woman-front" transform="translate(116.000000, 176.000000)">
                <g id="body-copy">
                    <g id="Combined-Shape" fill-opacity="1" fill="black">
                        <use filter="url(#filter-2)" xlink:href="#path-1"></use>
                    </g>
                    <path d="M39.4490784,27.8537912 C39.4490784,27.8537912 41.0114996,67.3994389 35.87783,87.2839736 C31.8985664,102.697392 107.713492,101.356862 99.4906925,87.730817 C95.6310658,81.3338058 94.8543192,27.4784427 94.3570229,26.5132607 L74.2687505,6.4053043 L39.4490784,27.8537912 Z" id="Fill-1" fill="#FEFEFE"></path>
                    <path d="M39.4490784,27.8537912 C39.4490784,27.8537912 41.0114996,67.3994389 35.87783,87.2839736 C31.8985664,102.697392 107.713492,101.356862 99.4906925,87.730817 C95.6310658,81.3338058 94.8543192,27.4784427 94.3570229,26.5132607 L74.2687505,6.4053043 L39.4490784,27.8537912 Z" id="Stroke-3" stroke="#949AB0" stroke-linecap="round" stroke-linejoin="round"></path>
                    <path d="M133.796659,224.167323 C133.499353,218.209112 129.928104,210.464421 126.951469,203.612523 C123.38022,165.183984 117.130535,160.417952 115.64311,149.991306 C114.154793,139.56466 114.452099,103.817182 111.476356,96.3700888 C109.152366,90.5548678 103.738354,85.6458454 97.1913626,83.8584715 C90.6443714,82.0710976 76.9539906,74.3255128 76.9539906,74.3255128 L76.9539906,62.7075824 L69.5150801,61.532384 L69.5141873,60.9202085 L67.5794635,61.2258494 L65.6456325,60.9202085 L65.6447397,61.532384 L58.2049364,62.7075824 L58.2049364,74.3255128 C58.2049364,74.3255128 44.5154484,82.0710976 37.9684572,83.8584715 C31.4205732,85.6458454 26.0074534,90.5548678 23.6834635,96.3700888 C20.7068279,103.817182 21.0050272,139.56466 19.5167094,149.991306 C18.0283916,160.417952 11.7787069,165.183984 8.20745845,203.612523 C5.2317157,210.464421 1.66046728,218.209112 1.36316085,224.167323 C1.0649616,230.125534 -0.125156933,244.126034 3.14878506,242.637151 C8.98420498,239.981114 6.12452781,223.273636 12.3742126,221.486262 C14.681239,220.826721 9.99308266,233.99788 13.2670247,234.593969 C14.9740814,234.904972 19.5167094,222.976038 17.7310852,214.336767 C17.7310852,214.336767 15.945461,209.272243 18.0283916,204.803808 C20.1122151,200.335373 32.6115846,160.11946 32.6115846,155.651026 C32.6115846,151.182591 34.7221924,134.064017 36.182833,126.755445 C37.0756451,122.28701 38.2657636,113.031202 40.3486943,113.3288 C42.4325177,113.627291 45.1938847,156.843204 44.598379,161.311639 C44.0037661,165.780073 35.2900209,187.526158 32.6115846,198.547999 C30.4965127,207.250723 28.4448305,224.464921 32.3133853,245.318212 C36.182833,266.17061 42.7298242,292.385129 42.4325177,301.62049 C42.1343185,310.854958 40.3486943,337.367968 43.0271306,350.474781 C45.7055669,363.582488 53.146263,389.201812 51.6579452,397.542592 C50.1696274,405.883372 43.3253298,407.969238 43.6226363,411.841583 C43.8333399,414.57984 59.7486085,416.026719 62.0743841,413.032868 C64.1573147,410.351807 62.540432,406.060322 64.1573147,404.095999 C66.109002,401.726834 64.3108784,395.79454 63.8600083,392.478068 C63.5135972,389.931954 64.7528204,363.880086 63.2645026,338.856851 C62.7145303,329.613447 61.1815719,319.494229 62.6689969,312.046242 C64.7421066,301.674112 65.3474332,270.341447 65.0501268,260.808488 C64.7501419,251.18348 64.3171281,227.889529 64.1921344,221.032269 C64.1778494,220.255655 64.9617384,219.750722 65.6822378,220.040277 C66.1759629,220.238675 66.7687901,220.389708 67.4312567,220.389708 C68.1133651,220.389708 68.8472567,220.166287 69.4713323,219.90533 C70.1909389,219.605945 70.9837561,220.120709 70.9694711,220.901791 C70.8489414,227.586569 70.4114635,251.120922 70.109693,260.808488 C69.8114938,270.341447 70.4177132,301.674112 72.4899301,312.046242 C73.9782479,319.494229 72.4443967,329.613447 71.8953172,338.856851 C70.4069994,363.880086 71.6462226,389.931954 71.2998115,392.478068 C70.8489414,395.79454 69.0508178,401.726834 71.0025051,404.095999 C72.6193878,406.060322 71.0025051,410.351807 73.0854358,413.032868 C75.4103185,416.026719 91.3264799,414.57984 91.5371835,411.841583 C91.83449,407.969238 84.9892996,405.883372 83.5018746,397.542592 C82.0135568,389.201812 89.4533601,363.582488 92.1317964,350.474781 C94.8102327,337.367968 93.0246085,310.854958 92.7273021,301.62049 C92.4299957,292.385129 98.9769868,266.17061 102.845542,245.318212 C106.714989,224.464921 104.663307,207.250723 102.548235,198.547999 C99.8697989,187.526158 91.1560537,165.780073 90.560548,161.311639 C89.9659351,156.843204 92.7273021,113.627291 94.8102327,113.3288 C96.8940562,113.031202 98.6796804,122.28701 98.9769868,126.755445 C99.4724975,134.191814 102.548235,151.182591 102.548235,155.651026 C102.548235,160.11946 115.047605,200.335373 117.130535,204.803808 C119.214359,209.272243 117.428735,214.336767 117.428735,214.336767 C115.64311,222.976038 120.184846,234.904972 121.892795,234.593969 C125.165844,233.99788 120.478581,220.826721 122.785607,221.486262 C129.035292,223.273636 126.174722,239.981114 132.011035,242.637151 C135.284977,244.126034 134.093965,230.125534 133.796659,224.167323" id="Fill-5" fill="#FEFEFE"></path>
                    <path d="M133.796659,224.167323 C133.499353,218.209112 129.928104,210.464421 126.951469,203.612523 C123.38022,165.183984 117.130535,160.417952 115.64311,149.991306 C114.154793,139.56466 114.452099,103.817182 111.476356,96.3700888 C109.152366,90.5548678 103.738354,85.6458454 97.1913626,83.8584715 C90.6443714,82.0710976 76.9539906,74.3255128 76.9539906,74.3255128 L76.9539906,62.7075824 L69.5150801,61.532384 L69.5141873,60.9202085 L67.5794635,61.2258494 L65.6456325,60.9202085 L65.6447397,61.532384 L58.2049364,62.7075824 L58.2049364,74.3255128 C58.2049364,74.3255128 44.5154484,82.0710976 37.9684572,83.8584715 C31.4205732,85.6458454 26.0074534,90.5548678 23.6834635,96.3700888 C20.7068279,103.817182 21.0050272,139.56466 19.5167094,149.991306 C18.0283916,160.417952 11.7787069,165.183984 8.20745845,203.612523 C5.2317157,210.464421 1.66046728,218.209112 1.36316085,224.167323 C1.0649616,230.125534 -0.125156933,244.126034 3.14878506,242.637151 C8.98420498,239.981114 6.12452781,223.273636 12.3742126,221.486262 C14.681239,220.826721 9.99308266,233.99788 13.2670247,234.593969 C14.9740814,234.904972 19.5167094,222.976038 17.7310852,214.336767 C17.7310852,214.336767 15.945461,209.272243 18.0283916,204.803808 C20.1122151,200.335373 32.6115846,160.11946 32.6115846,155.651026 C32.6115846,151.182591 34.7221924,134.064017 36.182833,126.755445 C37.0756451,122.28701 38.2657636,113.12601 40.3486943,113.423608 C42.4325177,113.722099 45.1938847,156.843204 44.598379,161.311639 C44.0037661,165.780073 35.2900209,187.526158 32.6115846,198.547999 C30.4965127,207.250723 28.4448305,224.464921 32.3133853,245.318212 C36.182833,266.17061 42.7298242,292.385129 42.4325177,301.62049 C42.1343185,310.854958 40.3486943,337.367968 43.0271306,350.474781 C45.7055669,363.582488 53.146263,389.201812 51.6579452,397.542592 C50.1696274,405.883372 43.3253298,407.969238 43.6226363,411.841583 C43.8333399,414.57984 59.7486085,416.026719 62.0743841,413.032868 C64.1573147,410.351807 62.540432,406.060322 64.1573147,404.095999 C66.109002,401.726834 64.3108784,395.79454 63.8600083,392.478068 C63.5135972,389.931954 64.7528204,363.880086 63.2645026,338.856851 C62.7145303,329.613447 61.1815719,319.494229 62.6689969,312.046242 C64.7421066,301.674112 65.3474332,270.341447 65.0501268,260.808488 C64.7501419,251.18348 64.3171281,227.889529 64.1921344,221.032269 C64.1778494,220.255655 64.9617384,219.750722 65.6822378,220.040277 C66.1759629,220.238675 66.7687901,220.389708 67.4312567,220.389708 C68.1133651,220.389708 68.8472567,220.166287 69.4713323,219.90533 C70.1909389,219.605945 70.9837561,220.120709 70.9694711,220.901791 C70.8489414,227.586569 70.4114635,251.120922 70.109693,260.808488 C69.8114938,270.341447 70.4177132,301.674112 72.4899301,312.046242 C73.9782479,319.494229 72.4443967,329.613447 71.8953172,338.856851 C70.4069994,363.880086 71.6462226,389.931954 71.2998115,392.478068 C70.8489414,395.79454 69.0508178,401.726834 71.0025051,404.095999 C72.6193878,406.060322 71.0025051,410.351807 73.0854358,413.032868 C75.4103185,416.026719 91.3264799,414.57984 91.5371835,411.841583 C91.83449,407.969238 84.9892996,405.883372 83.5018746,397.542592 C82.0135568,389.201812 89.4533601,363.582488 92.1317964,350.474781 C94.8102327,337.367968 93.0246085,310.854958 92.7273021,301.62049 C92.4299957,292.385129 98.9769868,266.17061 102.845542,245.318212 C106.714989,224.464921 104.663307,207.250723 102.548235,198.547999 C99.8697989,187.526158 91.1560537,165.780073 90.560548,161.311639 C89.9659351,156.843204 92.7273021,113.722099 94.8102327,113.423608 C96.8940562,113.12601 98.6796804,122.28701 98.9769868,126.755445 C99.4724975,134.191814 102.548235,151.182591 102.548235,155.651026 C102.548235,160.11946 115.047605,200.335373 117.130535,204.803808 C119.214359,209.272243 117.428735,214.336767 117.428735,214.336767 C115.64311,222.976038 120.184846,234.904972 121.892795,234.593969 C125.165844,233.99788 120.478581,220.826721 122.785607,221.486262 C129.035292,223.273636 126.174722,239.981114 132.011035,242.637151 C135.284977,244.126034 134.093965,230.125534 133.796659,224.167323 Z" id="Stroke-7" stroke="#949AB0" stroke-linecap="round" stroke-linejoin="round"></path>
                    <path d="M69.05771,3.72424344 C85.1390416,3.72424344 91.0807062,23.3853564 90.1878941,37.3867499 C89.295082,51.3872497 78.8786431,66.8784194 67.8675914,66.8784194 C56.8556469,66.8784194 45.5472888,54.6643998 45.5472888,39.1741238 C45.5472888,23.6829542 49.7131501,3.72424344 69.05771,3.72424344" id="Fill-11" fill="#FEFEFE"></path>
                    <path d="M69.05771,3.72424344 C85.1390416,3.72424344 91.0807062,23.3853564 90.1878941,37.3867499 C89.295082,51.3872497 78.8786431,66.8784194 67.8675914,66.8784194 C56.8556469,66.8784194 45.5472888,54.6643998 45.5472888,39.1741238 C45.5472888,23.6829542 49.7131501,3.72424344 69.05771,3.72424344 Z" id="Stroke-13" stroke="#949AB0" stroke-linecap="round" stroke-linejoin="round"></path>
                    <path d="M69.8322241,0.248521826 C69.8322241,0.248521826 50.0644712,-1.82304453 42.3782518,12.9835609 C38.4347008,20.5799 39.4025091,32.5704979 39.4025091,32.5704979 C39.4025091,32.5704979 68.2698029,26.3888652 73.1802695,13.8772479 C77.197924,26.1654435 94.384557,35.996 94.384557,35.996 C94.384557,35.996 100.411039,2.48273921 69.8322241,0.248521826" id="Fill-15" fill="#FEFEFE"></path>
                    <path d="M69.8322241,0.248521826 C69.8322241,0.248521826 50.0644712,-1.82304453 42.3782518,12.9835609 C38.4347008,20.5799 39.4025091,32.5704979 39.4025091,32.5704979 C39.4025091,32.5704979 68.2698029,26.3888652 73.1802695,13.8772479 C77.197924,26.1654435 94.384557,35.996 94.384557,35.996 C94.384557,35.996 100.411039,2.48273921 69.8322241,0.248521826 Z" id="Stroke-17" stroke="#949AB0" stroke-linecap="round" stroke-linejoin="round"></path>
                    <path d="M60.7250946,54.1335497 C60.7250946,54.1335497 66.1471425,55.6849903 67.950623,55.5589804 C69.7674956,55.4320769 75.0118739,53.7707128 75.0118739,53.7707128" id="Stroke-25" stroke="#949AB0" stroke-linecap="round" stroke-linejoin="round"></path>
                    <path d="M50.0113493,37.8134727 C50.4577554,35.5792553 59.8322825,32.6211515 61.3947037,38.206695" id="Stroke-29" stroke="#949AB0" stroke-linecap="round" stroke-linejoin="round"></path>
                    <path d="M86.3934426,37.8134727 C85.9470366,35.5792553 76.5725095,32.6211515 75.0100883,38.206695" id="Stroke-33" stroke="#949AB0" stroke-linecap="round" stroke-linejoin="round"></path>
                    <path d="M74.1172762,31.1880566 C74.1172762,31.1880566 80.1437579,27.4435082 84.1614124,29.2308821 C88.1790668,31.0182561 87.8817604,30.8904588 87.8817604,30.8904588" id="Stroke-37" stroke="#949AB0" stroke-linecap="round" stroke-linejoin="round"></path>
                    <path d="M61.1661438,32.0326699 C61.1661438,32.0326699 55.1950164,28.4194935 51.1220076,30.0754954 C47.4079092,31.5858264 47.332913,31.7350721 47.332913,31.7350721" id="Stroke-41" stroke="#949AB0" stroke-linecap="round" stroke-linejoin="round"></path>
                    <path d="M81.1106734,37.6101716 C81.1106734,38.5565861 80.3446406,39.3233695 79.3991526,39.3233695 C78.4545574,39.3233695 77.6885246,38.5565861 77.6885246,37.6101716 C77.6885246,36.6637572 78.4545574,35.8969738 79.3991526,35.8969738 C80.3446406,35.8969738 81.1106734,36.6637572 81.1106734,37.6101716 Z" id="Stroke-43" stroke="#949AB0" stroke-linecap="round" stroke-linejoin="round"></path>
                    <path d="M57.8975586,37.6101716 C57.8975586,38.5565861 57.1315259,39.3233695 56.1860378,39.3233695 C55.2414426,39.3233695 54.4754098,38.5565861 54.4754098,37.6101716 C54.4754098,36.6637572 55.2414426,35.8969738 56.1860378,35.8969738 C57.1315259,35.8969738 57.8975586,36.6637572 57.8975586,37.6101716 Z" id="Stroke-45" stroke="#949AB0" stroke-linecap="round" stroke-linejoin="round"></path>
                    <path d="M42.2848336,120.731221 C42.2848336,120.731221 45.5480702,115.571857 52.8630731,115.375533 C60.178076,115.17921 68.9369977,121.952713 68.9369977,121.952713 C68.9369977,121.952713 77.1816607,115.375533 82.8504579,115.375533 C88.519255,115.375533 92.7480469,121.952713 92.7480469,121.952713 L91.4549671,136.286477 C91.4549671,136.286477 80.965832,138.223271 68.7399142,138.223271 C56.5139964,138.223271 43.2405228,136.286477 43.2405228,136.286477 L42.2848336,120.731221 Z" id="Path-15" stroke="#949AB0" fill="#FFFFFF"></path>
                    <path d="M33.3319226,195.309938 C33.3319226,195.309938 56.3520341,198.227216 67.6949456,198.167828 C79.037857,198.10844 101.535156,195.309938 101.535156,195.309938 L103.14658,201.868011 C103.14658,201.868011 91.9945889,205.72492 83.9922663,211.716467 C75.9899437,217.708013 71.9672847,222.035139 71.9672847,222.035139 C71.198042,222.812387 69.6818104,223.44247 68.5813484,223.44247 L66.4287261,223.44247 C65.3279678,223.44247 63.842675,222.780386 63.0842613,221.97039 C63.0842613,221.97039 58.7768635,216.839738 49.8666161,210.82278 C40.9563687,204.805821 31.8105469,201.868011 31.8105469,201.868011 L33.3319226,195.309938 Z" id="Path-16" stroke="#949AB0" fill="#FFFFFF"></path>
                </g>
            </g>
        </g>
    </g>
</svg>