<?xml version="1.0" encoding="UTF-8" standalone="no"?>
<svg width="40px" height="40px" viewBox="0 0 40 40" version="1.1" xmlns="http://www.w3.org/2000/svg" xmlns:xlink="http://www.w3.org/1999/xlink">
    <!-- Generator: Sketch 43.1 (39012) - http://www.bohemiancoding.com/sketch -->
    <title>rotation</title>
    <desc>Created with Sketch.</desc>
    <defs>
        <filter x="-10.0%" y="-5.0%" width="120.0%" height="120.0%" filterUnits="objectBoundingBox" id="filter-1">
            <feOffset dx="0" dy="2" in="SourceAlpha" result="shadowOffsetOuter1"></feOffset>
            <feGaussianBlur stdDeviation="1" in="shadowOffsetOuter1" result="shadowBlurOuter1"></feGaussianBlur>
            <feColorMatrix values="0 0 0 0 0   0 0 0 0 0   0 0 0 0 0  0 0 0 0.5 0" type="matrix" in="shadowBlurOuter1" result="shadowMatrixOuter1"></feColorMatrix>
            <feMerge>
                <feMergeNode in="shadowMatrixOuter1"></feMergeNode>
                <feMergeNode in="SourceGraphic"></feMergeNode>
            </feMerge>
        </filter>
    </defs>
    <g id="flow5" stroke="none" stroke-width="1" fill="none" fill-rule="evenodd">
        <g id="1.4.2-point-red" transform="translate(-8.000000, -621.000000)">
            <g id="rotation" filter="url(#filter-1)" transform="translate(8.000000, 619.000000)">
                <rect id="Rectangle-8" fill-opacity="0" fill="#FFFFFF" x="0" y="0" width="40" height="40"></rect>
                <circle id="Oval-4" fill="#FFFFFF" cx="20" cy="20" r="18"></circle>
                <g id="Group-2" transform="translate(6.000000, 8.000000)" stroke="#F9B763" stroke-width="2" stroke-linecap="round">
                    <path d="M25.0652085,8.57347711 C23.5906369,3.61558629 18.9983181,0 13.5615339,0 C8.05154947,0 3.4089231,3.71360138 2,8.77445894" id="Oval-3"></path>
                    <polyline id="Path-11" stroke-linejoin="round" transform="translate(24.563426, 7.563426) rotate(-70.000000) translate(-24.563426, -7.563426) " points="22.5634255 5.56342553 22.5634255 9.56342553 26.5634255 9.56342553"></polyline>
                    <path d="M26,23.7990182 C24.5254284,18.8411273 19.9331096,15.2255411 14.4963254,15.2255411 C8.98634096,15.2255411 4.3437146,18.9391424 2.93479149,24" id="Oval-3" transform="translate(14.467396, 19.612771) rotate(180.000000) translate(-14.467396, -19.612771) "></path>
                    <polyline id="Path-11" stroke-linejoin="round" transform="translate(3.436574, 16.436574) rotate(110.000000) translate(-3.436574, -16.436574) " points="1.43657447 14.4365745 1.43657447 18.4365745 5.43657447 18.4365745"></polyline>
                </g>
            </g>
        </g>
    </g>
</svg>