<?xml version="1.0" encoding="UTF-8"?>
<svg width="192px" height="192px" viewBox="0 0 192 192" version="1.1" xmlns="http://www.w3.org/2000/svg" xmlns:xlink="http://www.w3.org/1999/xlink">
    <!-- Generator: Sketch 44 (41411) - http://www.bohemiancoding.com/sketch -->
    <title>li4</title>
    <desc>Created with Sketch.</desc>
    <defs>
        <rect id="path-1" x="0" y="0" width="192" height="192"></rect>
        <circle id="path-3" cx="117" cy="133" r="8"></circle>
        <filter x="-43.8%" y="-31.2%" width="187.5%" height="187.5%" filterUnits="objectBoundingBox" id="filter-4">
            <feOffset dx="0" dy="2" in="SourceAlpha" result="shadowOffsetOuter1"></feOffset>
            <feGaussianBlur stdDeviation="2" in="shadowOffsetOuter1" result="shadowBlurOuter1"></feGaussianBlur>
            <feColorMatrix values="0 0 0 0 0.831372549   0 0 0 0 0.839215686   0 0 0 0 0.874509804  0 0 0 1 0" type="matrix" in="shadowBlurOuter1"></feColorMatrix>
        </filter>
    </defs>
    <g id="version4" stroke="none" stroke-width="1" fill="none" fill-rule="evenodd">
        <g id="li4">
            <mask id="mask-2" fill="white">
                <use xlink:href="#path-1"></use>
            </mask>
            <g id="Mask"></g>
            <rect id="Mask" fill="#FFFFFF" mask="url(#mask-2)" x="0" y="0" width="192" height="192"></rect>
            <g id="Oval-2" mask="url(#mask-2)">
                <use fill="black" fill-opacity="1" filter="url(#filter-4)" xlink:href="#path-3"></use>
                <use fill="#F3807B" fill-rule="evenodd" xlink:href="#path-3"></use>
            </g>
            <path d="M106.228516,186.651367 C105.837891,180.411784 107.035156,176.984375 109.820313,176.369141 C113.998047,175.446289 126.226563,166.969727 133.068359,157.424805 C139.910156,147.879883 151.574219,129.230469 154.904297,125.662109 C158.234375,122.09375 169.357422,104.361328 169.357422,98.0839844 C169.357422,91.8066406 154.904297,91.3652344 147.359375,98.6994399 C139.814453,106.033645 132.210938,121.662109 124.985352,121.662109 C117.759766,121.662109 119.654297,99.7724609 119.46875,95.1582031 C119.283203,90.5439453 121.152344,40.9658203 119.798828,38.8125 C118.445313,36.6591797 119.223633,18.609375 112.048828,18.4550781 C104.874023,18.3007812 104.604041,28.3466797 103.406776,35.3701172 C102.20951,42.3935547 99.4716797,78.1669922 97.8105469,78.4697266 C96.1494141,78.7724609 98.0878906,42.3994141 98.8105469,36.3701172 C99.5332031,30.3408203 101.300781,6.96875 91.6132813,6.74902344 C85.1549479,6.60253906 81.9567057,17.2903646 82.0185547,38.8125 C81.1526693,63.4095052 80.2685547,75.8694661 79.3662109,76.1923828 C78.4638672,76.5152995 77.0794271,62.9078776 75.2128906,35.3701172 C74.8037283,21.5263672 71.4609549,14.6044922 65.1845703,14.6044922 C58.7783203,14.6044922 58.7783203,26.248317 58.7783203,35.3701172 C58.7783203,59.8378906 60.4273509,88.3856233 58.7783203,88.6845703 C56.4404297,89.1083984 54.5947266,69 54.5947266,62.9628906 C54.5947266,56.9257812 54.0556641,40.6923828 46.7841797,40.8408203 C39.5126953,40.9892578 39.0859375,57.3144531 38.5234375,69 C37.9609375,80.6855469 39.6474609,100.546875 38.7197266,104.361328 C37.7919922,108.175781 37.1435547,152.250977 44.1787109,162.888672 C47.8777133,168.481847 51.7841797,173.691406 51.7841797,177.369141 C51.7841797,179.820964 52.218099,182.792643 53.0859375,186.28418 L106.228516,186.651367 Z" id="Path-3" stroke="#949AB0" mask="url(#mask-2)"></path>
            <path d="M96,98.0690077 C78.9593726,110.123786 61.8115862,115.366798 44.5566406,113.798044" id="Path-4" stroke="#949AB0" mask="url(#mask-2)"></path>
            <path d="M101.384766,109.5 C95.2844771,111.740316 90.0943729,114.063559 85.8144531,116.469727 C79.3945734,120.078979 69.8769531,124.900391 65.3964844,129.439453" id="Path-4-Copy" stroke="#949AB0" mask="url(#mask-2)"></path>
            <path d="M107.951172,118.469727 C89.0670573,127.701288 77.6061198,143.701614 73.5683594,166.470703" id="Path-4-Copy" stroke="#949AB0" mask="url(#mask-2)"></path>
        </g>
    </g>
</svg>