<?xml version="1.0" encoding="UTF-8"?>
<svg width="58px" height="116px" viewBox="0 0 58 116" version="1.1" xmlns="http://www.w3.org/2000/svg" xmlns:xlink="http://www.w3.org/1999/xlink">
    <!-- Generator: Sketch 43.2 (39069) - http://www.bohemiancoding.com/sketch -->
    <title>bluetooth-red</title>
    <desc>Created with Sketch.</desc>
    <defs>
        <linearGradient x1="50%" y1="100%" x2="50%" y2="0%" id="linearGradient-1">
            <stop stop-color="#7E4477" offset="0%"></stop>
            <stop stop-color="#F3807B" offset="100%"></stop>
        </linearGradient>
    </defs>
    <g id="flow5" stroke="none" stroke-width="1" fill="none" fill-rule="evenodd">
        <g id="4.2.1-device" transform="translate(-159.000000, -208.000000)">
            <g id="bluetooth-red" transform="translate(124.000000, 178.000000)">
                <path d="M87.3431458,62 L65,39.6568542 L65,84.3431458 L87.3431458,62 Z M61,82 L61,30 L93,62 L67,88 L93,114 L61,146 L61,94 L35,120 L35,114.343146 L61,88.3431458 L61,88 L61,87.6568542 L35,61.6568542 L35,56 L61,82 Z M87.3431458,114 L65,91.6568542 L65,136.343146 L87.3431458,114 Z" id="Combined-Shape" fill="url(#linearGradient-1)" fill-rule="nonzero"></path>
                <rect id="Rectangle-3" x="0" y="0" width="128" height="176"></rect>
            </g>
        </g>
    </g>
</svg>