<?xml version="1.0" encoding="UTF-8"?>
<svg width="317px" height="452px" viewBox="0 0 317 452" version="1.1" xmlns="http://www.w3.org/2000/svg" xmlns:xlink="http://www.w3.org/1999/xlink">
    <!-- Generator: Sketch 43.2 (39069) - http://www.bohemiancoding.com/sketch -->
    <title>body_whole</title>
    <desc>Created with Sketch.</desc>
    <defs>
        <linearGradient x1="50.000006%" y1="98.1741483%" x2="50%" y2="0%" id="linearGradient-1">
            <stop stop-color="#2A3562" offset="0%"></stop>
            <stop stop-color="#3D679A" offset="48.7224968%"></stop>
            <stop stop-color="#65A1C8" offset="100%"></stop>
        </linearGradient>
        <filter x="-7.4%" y="-7.2%" width="114.9%" height="114.5%" filterUnits="objectBoundingBox" id="filter-2">
            <feGaussianBlur stdDeviation="2.36328125" in="SourceGraphic"></feGaussianBlur>
        </filter>
    </defs>
    <g id="flow5" stroke="none" stroke-width="1" fill="none" fill-rule="evenodd">
        <g id="3.2-symptom" transform="translate(-37.000000, -138.000000)">
            <g id="body_whole" transform="translate(37.000000, 138.000000)">
                <g id="body-copy">
                    <rect id="Rectangle-18" fill="#FFFFFF" x="0" y="0" width="317" height="452"></rect>
                    <g id="Page-1" transform="translate(5.615385, 13.382812)">
                        <path d="M39.8489168,28.6083984 C39.8489168,28.6083984 41.4643014,69.4445801 36.1566091,89.9780273 C32.0424552,105.894448 110.427378,104.510171 101.92584,90.4394531 C97.9353783,83.8336816 97.1323014,28.2208008 96.6181475,27.2241211 L75.8489168,6.45996094 L39.8489168,28.6083984 Z" id="Fill-1" fill="#FEFEFE"></path>
                        <path d="M39.8489168,28.6083984 C39.8489168,28.6083984 41.4643014,69.4445801 36.1566091,89.9780273 C32.0424552,105.894448 110.427378,104.510171 101.92584,90.4394531 C97.9353783,83.8336816 97.1323014,28.2208008 96.6181475,27.2241211 L75.8489168,6.45996094 L39.8489168,28.6083984 Z" id="Stroke-3" stroke="#000000" stroke-width="2" stroke-linecap="round" stroke-linejoin="round"></path>
                        <path d="M137.39472,231.328433 C137.087336,225.175781 133.395028,217.17835 130.31749,210.102847 C126.625182,170.420229 120.163643,165.498662 118.625797,154.731753 C117.087028,143.964844 117.394413,107.050781 114.317797,99.3606592 C111.915028,93.3556641 106.31749,88.2864404 99.5485666,86.4407373 C92.7796435,84.5950342 78.6251819,76.5966797 78.6251819,76.5966797 L78.6251819,64.5996094 L70.934105,63.3860596 L70.9331819,62.7539063 L68.9328743,63.0695215 L66.9334896,62.7539063 L66.9325666,63.3860596 L59.2405666,64.5996094 L59.2405666,76.5966797 C59.2405666,76.5966797 45.0870281,84.5950342 38.318105,86.4407373 C31.5482589,88.2864404 25.9516435,93.3556641 23.5488743,99.3606592 C20.4713358,107.050781 20.7796435,143.964844 19.2408743,154.731753 C17.702105,165.498662 11.2405666,170.420229 7.54825887,210.102847 C4.47164348,217.17835 0.779335792,225.175781 0.471951177,231.328433 C0.163643484,237.481084 -1.06681805,251.938477 2.31810502,250.401006 C8.35133579,247.658291 5.39472041,230.405581 11.8562589,228.559878 C14.2414896,227.878813 9.39441272,241.4798 12.7793358,242.095342 C14.5442589,242.416494 19.2408743,230.098271 17.3947204,221.177065 C17.3947204,221.177065 15.5485666,215.947266 17.702105,211.333008 C19.8565666,206.71875 32.7796435,165.19043 32.7796435,160.576172 C32.7796435,155.961914 34.9617973,138.284692 36.4719512,130.737612 C37.3950281,126.123354 38.6254896,119.663394 40.7790281,119.970703 C42.9334896,120.278936 47.8562589,161.807256 47.2405666,166.421514 C46.6257973,171.035771 35.5488743,193.491519 32.7796435,204.873047 C30.5928743,213.859775 28.4716435,231.635742 32.4713358,253.169561 C36.4719512,274.702456 43.2408743,301.772461 42.9334896,311.309209 C42.6251819,320.845034 40.7790281,348.223271 43.5482589,361.757813 C46.3174896,375.293276 54.0104127,401.748662 52.4716435,410.361636 C50.9328743,418.974609 43.8565666,421.128545 44.1639512,425.127261 C44.3817973,427.954878 60.8365666,429.448975 63.2411819,426.357422 C65.3947204,423.588867 63.7230281,419.157334 65.3947204,417.128906 C67.4125666,414.682427 65.5534896,408.556538 65.0873358,405.131836 C64.7291819,402.502632 66.0104127,375.600586 64.4716435,349.760742 C63.9030281,340.215688 62.318105,329.76624 63.8559512,322.075195 C65.9993358,311.36458 66.6251819,279.009404 66.3177973,269.165347 C66.0076435,259.226235 65.5599512,235.172109 65.4307204,228.091069 C65.4159512,227.289111 66.2264127,226.7677 66.9713358,227.066704 C67.4817973,227.271577 68.0947204,227.427539 68.7796435,227.427539 C69.4848743,227.427539 70.2436435,227.196826 70.8888743,226.927354 C71.6328743,226.618198 72.4525666,227.149761 72.4377973,227.956333 C72.3131819,234.859263 71.8608743,259.161636 71.5488743,269.165347 C71.2405666,279.009404 71.8673358,311.36458 74.0097973,322.075195 C75.5485666,329.76624 73.9627204,340.215688 73.3950281,349.760742 C71.8562589,375.600586 73.1374896,402.502632 72.7793358,405.131836 C72.3131819,408.556538 70.454105,414.682427 72.4719512,417.128906 C74.1436435,419.157334 72.4719512,423.588867 74.6254896,426.357422 C77.0291819,429.448975 93.4848743,427.954878 93.7027204,425.127261 C94.010105,421.128545 86.9328743,418.974609 85.3950281,410.361636 C83.8562589,401.748662 91.5482589,375.293276 94.3174896,361.757813 C97.0867204,348.223271 95.2405666,320.845034 94.9331819,311.309209 C94.6257973,301.772461 101.39472,274.702456 105.394413,253.169561 C109.395028,231.635742 107.273797,213.859775 105.087028,204.873047 C102.317797,193.491519 91.2408743,171.035771 90.6251819,166.421514 C90.0104127,161.807256 94.9331819,120.278936 97.0867204,119.970703 C99.2411819,119.663394 101.087336,126.123354 101.39472,130.737612 C101.907028,138.41666 105.087028,155.961914 105.087028,160.576172 C105.087028,165.19043 118.010105,206.71875 120.163643,211.333008 C122.318105,215.947266 120.471951,221.177065 120.471951,221.177065 C118.625797,230.098271 123.32149,242.416494 125.087336,242.095342 C128.471336,241.4798 123.625182,227.878813 126.010413,228.559878 C132.471951,230.405581 129.514413,247.658291 135.548567,250.401006 C138.93349,251.938477 137.702105,237.481084 137.39472,231.328433" id="Fill-5" fill="#FEFEFE"></path>
                        <path d="M137.39472,231.328433 C137.087336,225.175781 133.395028,217.17835 130.31749,210.102847 C126.625182,170.420229 120.163643,165.498662 118.625797,154.731753 C117.087028,143.964844 117.394413,107.050781 114.317797,99.3606592 C111.915028,93.3556641 106.31749,88.2864404 99.5485666,86.4407373 C92.7796435,84.5950342 78.6251819,76.5966797 78.6251819,76.5966797 L78.6251819,64.5996094 L70.934105,63.3860596 L68.9328743,63.0695215 L66.9334896,62.7539063 L59.2405666,64.5996094 L59.2405666,76.5966797 C59.2405666,76.5966797 45.0870281,84.5950342 38.318105,86.4407373 C31.5482589,88.2864404 25.9516435,93.3556641 23.5488743,99.3606592 C20.4713358,107.050781 20.7796435,143.964844 19.2408743,154.731753 C17.702105,165.498662 11.2405666,170.420229 7.54825887,210.102847 C4.47164348,217.17835 0.779335792,225.175781 0.471951177,231.328433 C0.163643484,237.481084 -1.06681805,251.938477 2.31810502,250.401006 C8.35133579,247.658291 5.39472041,230.405581 11.8562589,228.559878 C14.2414896,227.878813 9.39441272,241.4798 12.7793358,242.095342 C14.5442589,242.416494 19.2408743,230.098271 17.3947204,221.177065 C17.3947204,221.177065 15.5485666,215.947266 17.702105,211.333008 C19.8565666,206.71875 32.7796435,165.19043 32.7796435,160.576172 C32.7796435,155.961914 34.9617973,138.284692 36.4719512,130.737612 C37.3950281,126.123354 38.6254896,119.663394 40.7790281,119.970703 C42.9334896,120.278936 45.8562589,161.807256 45.2405666,166.421514 C44.6257973,171.035771 35.5488743,193.491519 32.7796435,204.873047 C30.5928743,213.859775 28.4716435,231.635742 32.4713358,253.169561 C36.4719512,274.702456 43.2408743,301.772461 42.9334896,311.309209 C42.6251819,320.845034 40.7790281,348.223271 43.5482589,361.757813 C46.3174896,375.293276 54.0104127,401.748662 52.4716435,410.361636 C50.9328743,418.974609 43.8565666,421.128545 44.1639512,425.127261 C44.3817973,427.954878 60.8365666,429.448975 63.2411819,426.357422 C65.3947204,423.588867 63.7230281,419.157334 65.3947204,417.128906 C67.4125666,414.682427 65.5534896,408.556538 65.0873358,405.131836 C64.7291819,402.502632 66.0104127,375.600586 64.4716435,349.760742 C63.9030281,340.215688 62.318105,329.76624 63.8559512,322.075195 C65.9993358,311.36458 66.6251819,279.009404 66.3177973,269.165347 C66.0076435,259.226235 65.5599512,235.172109 65.4307204,228.091069 C65.4159512,227.289111 66.2264127,226.7677 66.9713358,227.066704 C67.4817973,227.271577 68.0947204,227.427539 68.7796435,227.427539 C69.4848743,227.427539 70.2436435,227.196826 70.8888743,226.927354 C71.6328743,226.618198 72.4525666,227.149761 72.4377973,227.956333 C72.3131819,234.859263 71.8608743,259.161636 71.5488743,269.165347 C71.2405666,279.009404 71.8673358,311.36458 74.0097973,322.075195 C75.5485666,329.76624 73.9627204,340.215688 73.3950281,349.760742 C71.8562589,375.600586 73.1374896,402.502632 72.7793358,405.131836 C72.3131819,408.556538 70.454105,414.682427 72.4719512,417.128906 C74.1436435,419.157334 72.4719512,423.588867 74.6254896,426.357422 C77.0291819,429.448975 93.4848743,427.954878 93.7027204,425.127261 C94.010105,421.128545 86.9328743,418.974609 85.3950281,410.361636 C83.8562589,401.748662 91.5482589,375.293276 94.3174896,361.757813 C97.0867204,348.223271 95.2405666,320.845034 94.9331819,311.309209 C94.6257973,301.772461 101.39472,274.702456 105.394413,253.169561 C109.395028,231.635742 107.273797,213.859775 105.087028,204.873047 C102.317797,193.491519 93.2408743,171.035771 92.6251819,166.421514 C92.0104127,161.807256 94.9331819,120.278936 97.0867204,119.970703 C99.2411819,119.663394 101.087336,126.123354 101.39472,130.737612 C101.907028,138.41666 105.087028,155.961914 105.087028,160.576172 C105.087028,165.19043 118.010105,206.71875 120.163643,211.333008 C122.318105,215.947266 120.471951,221.177065 120.471951,221.177065 C118.625797,230.098271 123.32149,242.416494 125.087336,242.095342 C128.471336,241.4798 123.625182,227.878813 126.010413,228.559878 C132.471951,230.405581 129.514413,247.658291 135.548567,250.401006 C138.93349,251.938477 137.702105,237.481084 137.39472,231.328433 Z" id="Stroke-7" stroke="#000000" stroke-width="2" stroke-linecap="round" stroke-linejoin="round"></path>
                        <path d="M289.702413,231.328433 C289.395028,225.175781 285.70272,217.17835 282.625182,210.102847 C278.932874,170.420229 272.471336,165.498662 270.93349,154.731753 C269.39472,143.964844 269.702105,107.050781 266.62549,99.3606592 C264.22272,93.3556641 258.625182,88.2864404 251.856259,86.4407373 C245.087336,84.5950342 230.932874,76.5966797 230.932874,76.5966797 L230.932874,64.5996094 L223.241797,63.3860596 L221.240567,63.0695215 L219.241182,62.7539063 L211.548259,64.5996094 L211.548259,76.5966797 C211.548259,76.5966797 197.39472,84.5950342 190.625797,86.4407373 C183.855951,88.2864404 178.259336,93.3556641 175.856567,99.3606592 C172.779028,107.050781 173.087336,143.964844 171.548567,154.731753 C170.009797,165.498662 163.548259,170.420229 159.855951,210.102847 C156.779336,217.17835 153.087028,225.175781 152.779643,231.328433 C152.471336,237.481084 151.240874,251.938477 154.625797,250.401006 C160.659028,247.658291 157.702413,230.405581 164.163951,228.559878 C166.549182,227.878813 161.702105,241.4798 165.087028,242.095342 C166.851951,242.416494 171.548567,230.098271 169.702413,221.177065 C169.702413,221.177065 167.856259,215.947266 170.009797,211.333008 C172.164259,206.71875 185.087336,165.19043 185.087336,160.576172 C185.087336,155.961914 187.26949,138.284692 188.779643,130.737612 C189.70272,126.123354 190.933182,119.663394 193.08672,119.970703 C195.241182,120.278936 198.163951,161.807256 197.548259,166.421514 C196.93349,171.035771 187.856567,193.491519 185.087336,204.873047 C182.900567,213.859775 180.779336,231.635742 184.779028,253.169561 C188.779643,274.702456 194.702105,302.311406 194.39472,311.847231 C194.087336,321.383057 193.08672,348.223271 195.855951,361.757813 C198.625182,375.293276 205.275028,406.487505 204.548567,415.206606 C204.317797,417.975161 192.135951,414.025356 191.856259,419.820864 C191.719643,422.653096 215.991028,429.420366 217.702413,425.357974 C219.548567,420.974429 216.548567,419.359438 216.779336,410.361636 C216.84672,407.70936 217.395028,375.523989 215.856259,349.684146 C215.288567,340.139092 214.625797,329.76624 216.163643,322.075195 C218.306105,311.36458 218.932874,279.009404 218.62549,269.165347 C218.306105,258.969683 217.843643,233.921646 217.729182,227.577964 C217.719028,226.992876 218.327336,226.613584 218.85349,226.87106 C219.478413,227.177446 220.339643,227.453379 221.39472,227.427539 C222.279951,227.406313 223.045182,227.144224 223.622105,226.857217 C224.150105,226.595127 224.763028,226.972573 224.752874,227.561353 C224.638413,233.878271 224.175951,258.960454 223.856567,269.165347 C223.548259,279.009404 224.175028,311.36458 226.31749,322.075195 C227.856259,329.76624 226.270413,340.215688 225.70272,349.760742 C224.163951,375.600586 224.261797,407.712129 224.39472,410.361636 C224.856259,419.590151 222.447951,424.291157 225.087028,426.050112 C229.240874,428.818667 249.831951,421.522603 248.62549,418.205874 C246.779336,413.13019 240.087028,417.513735 237.087028,415.668032 C234.028874,413.787261 243.087028,373.601689 245.856259,360.066226 C248.62549,346.530762 247.548259,320.845034 247.240874,311.309209 C246.93349,301.772461 253.702413,274.702456 257.702105,253.169561 C261.70272,231.635742 259.58149,213.859775 257.39472,204.873047 C254.62549,193.491519 245.548567,171.035771 244.932874,166.421514 C244.318105,161.807256 247.240874,120.278936 249.394413,119.970703 C251.548874,119.663394 253.395028,126.123354 253.702413,130.737612 C254.21472,138.41666 257.39472,155.961914 257.39472,160.576172 C257.39472,165.19043 270.317797,206.71875 272.471336,211.333008 C274.625797,215.947266 272.779643,221.177065 272.779643,221.177065 C270.93349,230.098271 275.629182,242.416494 277.395028,242.095342 C280.779028,241.4798 275.932874,227.878813 278.318105,228.559878 C284.779643,230.405581 281.822105,247.658291 287.856259,250.401006 C291.241182,251.938477 290.009797,237.481084 289.702413,231.328433 Z" id="Stroke-9" stroke="#000000" stroke-width="2" stroke-linecap="round" stroke-linejoin="round"></path>
                        <path d="M253.310455,91.253517 C250.208917,86.1196937 249.031994,51.389098 248.420917,35.69693 C249.175994,29.31818 250.735994,2.15681286 222.848917,0.121925163 C222.848917,0.121925163 202.079686,-2.18520374 194.464301,13.2725599 C192.258148,17.7502357 191.530763,24.5424232 191.304609,29.3790882 L191.233532,29.4224623 C191.233532,29.4224623 191.246455,29.7417689 191.264917,30.3268568 C191.162455,33.2070765 191.233532,35.1902845 191.233532,35.1902845 C191.233532,35.1902845 191.295378,35.1727504 191.38584,35.1487562 C191.610148,47.1135267 191.630455,74.9744154 187.541224,90.7920912 C183.427071,106.707589 261.811994,105.324235 253.310455,91.253517" id="Fill-19" fill="#FEFEFE"></path>
                        <path d="M253.310455,91.253517 C250.208917,86.1196937 249.031994,51.389098 248.420917,35.69693 C249.175994,29.31818 250.735994,2.15681286 222.848917,0.121925163 C222.848917,0.121925163 202.079686,-2.18520374 194.464301,13.2725599 C192.258148,17.7502357 191.530763,24.5424232 191.304609,29.3790882 L191.233532,29.4224623 C191.233532,29.4224623 191.246455,29.7417689 191.264917,30.3268568 C191.162455,33.2070765 191.233532,35.1902845 191.233532,35.1902845 C191.233532,35.1902845 191.295378,35.1727504 191.38584,35.1487562 C191.610148,47.1135267 191.630455,74.9744154 187.541224,90.7920912 C183.427071,106.707589 261.811994,105.324235 253.310455,91.253517 Z" id="Stroke-21" stroke="#000000" stroke-width="2" stroke-linecap="round" stroke-linejoin="round"></path>
                        <g id="face" transform="translate(39.692308, 0.000000)">
                            <path d="M30.7689231,3.69140625 C47.3953846,3.69140625 53.5384615,23.9941406 52.6153846,38.4524561 C51.6923077,52.9098486 40.9227692,68.9065576 29.5384615,68.9065576 C18.1532308,68.9065576 6.46153846,56.2939453 6.46153846,40.2981592 C6.46153846,24.3014502 10.7686154,3.69140625 30.7689231,3.69140625" id="Fill-11" fill="#FEFEFE"></path>
                            <path d="M30.7689231,3.69140625 C47.3953846,3.69140625 53.5384615,23.9941406 52.6153846,38.4524561 C51.6923077,52.9098486 40.9227692,68.9065576 29.5384615,68.9065576 C18.1532308,68.9065576 6.46153846,56.2939453 6.46153846,40.2981592 C6.46153846,24.3014502 10.7686154,3.69140625 30.7689231,3.69140625 Z" id="Stroke-13" stroke="#000000" stroke-width="2" stroke-linecap="round" stroke-linejoin="round"></path>
                            <path d="M31.5696919,0.102257824 C31.5696919,0.102257824 11.1318458,-2.0369121 3.18507653,13.2528926 C-0.892154243,21.0971309 0.108461142,33.4790303 0.108461142,33.4790303 C0.108461142,33.4790303 29.9543073,27.095666 35.0312304,14.1757442 C39.1850765,26.8649531 56.9543073,37.0163203 56.9543073,37.0163203 C56.9543073,37.0163203 63.1850765,2.40938673 31.5696919,0.102257824" id="Fill-15" fill="#FEFEFE"></path>
                            <path d="M31.5696919,0.102257824 C31.5696919,0.102257824 11.1318458,-2.0369121 3.18507653,13.2528926 C-0.892154243,21.0971309 0.108461142,33.4790303 0.108461142,33.4790303 C0.108461142,33.4790303 29.9543073,27.095666 35.0312304,14.1757442 C39.1850765,26.8649531 56.9543073,37.0163203 56.9543073,37.0163203 C56.9543073,37.0163203 63.1850765,2.40938673 31.5696919,0.102257824 Z" id="Stroke-17" stroke="#000000" stroke-width="2" stroke-linecap="round" stroke-linejoin="round"></path>
                            <path d="M22.1538462,55.7457715 C22.1538462,55.7457715 27.7596923,57.3478418 29.6243077,57.2177197 C31.5027692,57.0866748 36.9249231,55.3710938 36.9249231,55.3710938" id="Stroke-25" stroke="#000000" stroke-width="2" stroke-linecap="round" stroke-linejoin="round"></path>
                            <path d="M11.0769231,38.8931045 C11.5384615,36.5859756 21.2307692,33.531337 22.8461538,39.2991592" id="Stroke-29" stroke="#000000" stroke-width="2" stroke-linecap="round" stroke-linejoin="round"></path>
                            <path d="M48.6923077,38.8931045 C48.2307692,36.5859756 38.5384615,33.531337 36.9230769,39.2991592" id="Stroke-33" stroke="#000000" stroke-width="2" stroke-linecap="round" stroke-linejoin="round"></path>
                            <path d="M36,32.0514744 C36,32.0514744 42.2307692,28.1847263 46.3846154,30.0304294 C50.5384615,31.8761326 50.2310769,31.7441648 50.2310769,31.7441648" id="Stroke-37" stroke="#000000" stroke-width="2" stroke-linecap="round" stroke-linejoin="round"></path>
                            <path d="M22.6098462,32.9236508 C22.6098462,32.9236508 16.4363077,29.1925619 12.2252308,30.9026059 C8.38523077,32.462225 8.30769231,32.6163412 8.30769231,32.6163412" id="Stroke-41" stroke="#000000" stroke-width="2" stroke-linecap="round" stroke-linejoin="round"></path>
                            <path d="M43.2304615,38.6831689 C43.2304615,39.6604688 42.4384615,40.4522754 41.4609231,40.4522754 C40.4843077,40.4522754 39.6923077,39.6604688 39.6923077,38.6831689 C39.6923077,37.7058691 40.4843077,36.9140625 41.4609231,36.9140625 C42.4384615,36.9140625 43.2304615,37.7058691 43.2304615,38.6831689 Z" id="Stroke-43" stroke="#000000" stroke-width="2" stroke-linecap="round" stroke-linejoin="round"></path>
                            <path d="M19.2304615,38.6831689 C19.2304615,39.6604688 18.4384615,40.4522754 17.4609231,40.4522754 C16.4843077,40.4522754 15.6923077,39.6604688 15.6923077,38.6831689 C15.6923077,37.7058691 16.4843077,36.9140625 17.4609231,36.9140625 C18.4384615,36.9140625 19.2304615,37.7058691 19.2304615,38.6831689 Z" id="Stroke-45" stroke="#000000" stroke-width="2" stroke-linecap="round" stroke-linejoin="round"></path>
                        </g>
                    </g>
                    <path d="M48.0751953,139.588379 C48.0751953,139.588379 47.6845703,132.046387 58.7749023,132.046387 C69.8652344,132.046387 71.5742188,140.162598 74.6074219,140.162598 C77.640625,140.162598 79.1386719,132.046387 89.8994141,132.046387 C100.660156,132.046387 100.351562,138.548828 100.351562,138.548828 L99.3271484,152.512695 C99.3271484,152.512695 90.0737325,153.701874 82.1256059,154.326451 C79.2950214,154.548883 76.6299871,154.699707 74.6074219,154.699707 C66.9056041,154.699707 49.8349609,152.512695 49.8349609,152.512695 L48.0751953,139.588379 Z" id="Path-15" fill="#000000"></path>
                    <path d="M200.478516,142.328713 L250.586289,142.328713 C252.180655,142.328713 253.057591,143.556714 252.545053,145.071312 L251.513672,148.119141 L202.648937,148.119141 L200.478516,142.328713 Z" id="Path-15-Copy" fill="#000000"></path>
                    <path d="M39.3486328,214.545433 C39.3486328,214.545433 62.1380332,212.714844 74.1676556,212.714844 C86.197278,212.714844 110.262868,214.545433 110.262868,214.545433 L111.32104,222.684216 C111.32104,222.684216 99.8106971,226.828285 91.5174279,231.854067 C83.2241587,236.879848 77.6447679,244.962737 77.6447679,244.962737 L71.2670898,244.962737 C71.2670898,244.962737 66.2822266,237.360966 57.8061523,231.854067 C49.3300781,226.347168 37.0142711,221.705142 37.0142711,221.705142 L39.3486328,214.545433 Z" id="Path-16" fill="#000000"></path>
                    <path d="M190.254244,215.957072 C190.913248,213.850935 193.219423,211.911606 195.421782,211.631418 C195.421782,211.631418 215.998772,208.848091 226.690198,208.792969 C237.381624,208.737846 258.614794,211.319426 258.614794,211.319426 C260.799504,211.57207 262.801473,213.552912 263.087247,215.750901 L263.112046,215.941638 C263.397404,218.136431 262.857191,221.5277 261.789655,223.458276 C261.789655,223.458276 259.466947,229.917675 250.109976,236.154133 C240.753005,242.390591 237.88027,241.233373 237.88027,241.233373 C233.501861,241.764013 226.396894,242.565216 225.261293,242.68372 L229.95246,242.194183 C227.3616,242.464546 221.712729,242.287952 217.372297,241.425734 C217.372297,241.425734 214.088341,242.194183 204.574519,236.154133 C195.060697,230.114083 191.364496,222.372162 191.364496,222.372162 C190.236437,220.474746 189.85832,217.222423 190.515196,215.123088 L190.254244,215.957072 Z" id="Path-16-Copy" fill="#000000"></path>
                </g>
                <g id="Group-11" style="mix-blend-mode: lighten;" transform="translate(4.000000, 10.000000)">
                    <rect id="Rectangle-14" fill="url(#linearGradient-1)" x="0" y="0" width="293" height="432"></rect>
                    <ellipse id="Oval-15" fill-opacity="0" fill="#FFFFFF" filter="url(#filter-2)" cx="71.4354628" cy="53.004472" rx="47.6745763" ry="49.0320582"></ellipse>
                </g>
            </g>
        </g>
    </g>
</svg>