<?xml version="1.0" encoding="UTF-8"?>
<svg width="259px" height="269px" viewBox="0 0 259 269" version="1.1" xmlns="http://www.w3.org/2000/svg" xmlns:xlink="http://www.w3.org/1999/xlink">
    <!-- Generator: Sketch 43.2 (39069) - http://www.bohemiancoding.com/sketch -->
    <title>timer_circle</title>
    <desc>Created with Sketch.</desc>
    <defs>
        <linearGradient x1="50%" y1="100%" x2="50%" y2="0%" id="linearGradient-1">
            <stop stop-color="#7E4477" offset="0%"></stop>
            <stop stop-color="#F3807B" offset="100%"></stop>
        </linearGradient>
    </defs>
    <g id="flow5" stroke="none" stroke-width="1" fill="none" fill-rule="evenodd" stroke-linecap="square">
        <g id="5.1-treatment" transform="translate(-59.000000, -155.000000)" stroke="url(#linearGradient-1)">
            <g id="timer_circle" transform="translate(60.000000, 157.000000)">
                <path d="M128.5,4 L128.5,12.0313725 M141.879643,4.70119739 L141.040136,12.6885732 M155.112696,6.79710711 L153.44288,14.6529749 M168.054175,10.2647659 L165.572345,17.9030551 M180.56229,15.0661814 L177.295637,22.4032053 M192.5,21.1487483 L188.484314,28.104121 M203.736512,28.4458247 L199.01579,34.9433416 M214.148718,36.8774623 L208.77468,42.8459353 M223.622538,46.3512824 L217.654065,51.7253196 M232.054175,56.7634877 L225.556658,61.48421 M239.351252,68 L232.395879,72.0156863 M245.433819,79.9377097 L238.096795,83.2043632 M250.235234,92.4458247 L242.596945,94.9276553 M253.702893,105.387304 L245.847025,107.05712 M255.798803,118.620357 L247.811427,119.459864 M256.5,132 L248.468627,132 M255.798803,145.379643 L247.811427,144.540136 M253.702893,158.612696 L245.847025,156.94288 M250.235234,171.554175 L242.596945,169.072345 M245.433819,184.06229 L238.096795,180.795637 M239.351252,196 L232.395879,191.984314 M232.054175,207.236512 L225.556658,202.51579 M223.622538,217.648718 L217.654065,212.27468 M214.148718,227.122538 L208.77468,221.154065 M203.736512,235.554175 L199.01579,229.056658 M192.5,242.851252 L188.484314,235.895879 M180.56229,248.933819 L177.295637,241.596795 M168.054175,253.735234 L165.572345,246.096945 M155.112696,257.202893 L153.44288,249.347025 M141.879643,259.298803 L141.040136,251.311427 M128.5,260 L128.5,251.968627 M115.120357,259.298803 L115.959864,251.311427 M101.887304,257.202893 L103.55712,249.347025 M88.9458247,253.735234 L91.4276553,246.096945 M76.4377097,248.933819 L79.7043632,241.596795 M64.5,242.851252 L68.5156863,235.895879 M53.2634877,235.554175 L57.98421,229.056658 M42.8512824,227.122538 L48.2253196,221.154065 M33.3774623,217.648718 L39.3459353,212.27468 M24.9458247,207.236512 L31.4433416,202.51579 M17.6487483,196 L24.604121,191.984314 M11.5661814,184.06229 L18.9032053,180.795637 M6.76476591,171.554175 L14.4030551,169.072345 M3.29710711,158.612696 L11.1529749,156.94288 M1.20119739,145.379643 L9.18857324,144.540136 M0.5,132 L8.53137255,132 M1.20119739,118.620357 L9.18857324,119.459864 M3.29710711,105.387304 L11.1529749,107.05712 M6.76476591,92.4458247 L14.4030551,94.9276553 M11.5661814,79.9377097 L18.9032053,83.2043632 M17.6487483,68 L24.604121,72.0156863 M24.9458247,56.7634877 L31.4433416,61.48421 M33.3774623,46.3512824 L39.3459353,51.7253196 M42.8512824,36.8774623 L48.2253196,42.8459353 M53.2634877,28.4458247 L57.98421,34.9433416 M64.5,21.1487483 L68.5156863,28.104121 M76.4377097,15.0661814 L79.7043632,22.4032053 M88.9458247,10.2647659 L91.4276553,17.9030551 M101.887304,6.79710711 L103.55712,14.6529749 M115.120357,4.70119739 L115.959864,12.6885732" id="Line" stroke-width="2"></path>
                <path d="M128,0.5 L128,12.5 M242.315353,66.5 L231.923048,72.5 M242.315353,198.5 L231.923048,192.5 M128,264.5 L128,252.5 M13.6846467,198.5 L24.0769515,192.5 M13.6846467,66.5 L24.0769515,72.5" id="Line" stroke-width="4"></path>
            </g>
        </g>
    </g>
</svg>