<?xml version="1.0" encoding="UTF-8"?>
<svg width="29px" height="30px" viewBox="0 0 29 30" version="1.1" xmlns="http://www.w3.org/2000/svg" xmlns:xlink="http://www.w3.org/1999/xlink">
    <!-- Generator: Sketch 43.2 (39069) - http://www.bohemiancoding.com/sketch -->
    <title>face</title>
    <desc>Created with Sketch.</desc>
    <defs></defs>
    <g id="flow5" stroke="none" stroke-width="1" fill="none" fill-rule="evenodd">
        <g id="Group-12" transform="translate(-11.000000, 0.000000)">
            <g id="body_whole" transform="translate(0.000000, 2.000000)">
                <g id="body-copy">
                    <g id="Page-1" transform="translate(0.054841, 0.885319)">
                        <path d="M14.581938,10.4433313 C14.581938,10.4433313 15.1730567,25.3503445 13.2308096,32.8459613 C11.7253148,38.6561592 40.4087567,38.1508367 37.2977837,33.0144021 C35.8375517,30.6030033 35.5436813,10.301841 35.3555366,9.93800881 L27.7554396,2.35817158 L14.581938,10.4433313 Z" id="Stroke-3" stroke="#F3807B" stroke-linecap="round" stroke-linejoin="round"></path>
                        <path d="M50.2769324,84.4451137 C50.164451,82.1991237 48.8133226,79.2797073 47.6871571,76.6968356 C46.3360287,62.2109245 43.9715541,60.4143346 43.4088091,56.4839364 C42.8457264,52.5535381 42.9582078,39.0782719 41.8323801,36.2710371 C40.9531333,34.0789482 38.9048227,32.2284572 36.4278666,31.5546939 C33.9509105,30.8809306 28.77136,27.9611773 28.77136,27.9611773 L28.77136,23.5817158 L25.9569596,23.1387164 L25.9566218,22.9079525 L25.224648,23.023166 L24.493012,22.9079525 L24.4926742,23.1387164 L21.677936,23.5817158 L21.677936,27.9611773 C21.677936,27.9611773 16.4987232,30.8809306 14.0217671,31.5546939 C11.5444733,32.2284572 9.49650045,34.0789482 8.61725367,36.2710371 C7.49108818,39.0782719 7.60390739,52.5535381 7.04082465,56.4839364 C6.4777419,60.4143346 4.11326726,62.2109245 2.76213889,76.6968356 C1.63631118,79.2797073 0.285182813,82.1991237 0.172701377,84.4451137 C0.0598821583,86.6911037 -0.39038137,91.9686917 0.84826556,91.4074468 C3.05600931,90.4062346 1.97409327,84.108232 4.33856791,83.4344687 C5.21139684,83.1858501 3.43770308,88.1508119 4.67635001,88.3755119 C5.32218937,88.4927468 7.04082465,83.9960504 6.36526046,80.7394155 C6.36526046,80.7394155 5.68969628,78.8303071 6.4777419,77.1458989 C7.2661253,75.4614906 11.9950746,60.3018161 11.9950746,58.6174079 C11.9950746,56.9329996 12.7935915,50.4800315 13.346203,47.7250133 C13.683985,46.0406051 14.1342486,43.6824335 14.9222942,43.7946151 C15.7106776,43.9071336 17.5120695,59.066808 17.2867688,60.7512163 C17.061806,62.4356245 13.0084209,70.6329658 11.9950746,74.7877273 C11.1948688,78.0682808 10.4186456,84.5572953 11.8822554,92.4180918 C13.346203,100.278551 15.823159,110.160301 15.7106776,113.641636 C15.5978584,117.122634 14.9222942,127.116902 15.9356405,132.057609 C16.9489867,136.998652 19.7640627,146.656038 19.20098,149.800155 C18.6378972,152.944271 16.0484597,153.730553 16.1609411,155.190261 C16.2406577,156.222467 22.2619613,156.767878 23.1418836,155.639324 C23.9299292,154.628679 23.3182059,153.010974 23.9299292,152.270508 C24.6683209,151.377435 23.9880278,149.141214 23.8174478,147.891046 C23.6863883,146.93127 24.1552299,137.110833 23.5921471,127.678147 C23.3840734,124.19378 22.8041015,120.379269 23.3668465,117.571697 C24.1511765,113.661849 24.3801928,101.850778 24.2677113,98.2572615 C24.1542165,94.6290461 23.9903922,85.8482258 23.9431027,83.2633328 C23.9376982,82.9705827 24.2342709,82.7802445 24.506861,82.8893942 C24.6936545,82.9641819 24.9179419,83.0211149 25.1685762,83.0211149 C25.4266417,83.0211149 25.7042986,82.9368945 25.9404082,82.8385251 C26.2126606,82.7256697 26.5126111,82.9197135 26.5072066,83.2141481 C26.461606,85.7340229 26.2960928,94.6054644 26.1819224,98.2572615 C26.0691032,101.850778 26.2984573,113.661849 27.0824495,117.571697 C27.6455322,120.379269 27.0652226,124.19378 26.8574866,127.678147 C26.2944039,137.110833 26.7632454,146.93127 26.632186,147.891046 C26.461606,149.141214 25.7813129,151.377435 26.5197045,152.270508 C27.1314279,153.010974 26.5197045,154.628679 27.3077502,155.639324 C28.1873347,156.767878 34.2089761,156.222467 34.2886926,155.190261 C34.4011741,153.730553 31.8113988,152.944271 31.2486538,149.800155 C30.6855711,146.656038 33.5003092,136.998652 34.5136555,132.057609 C35.5270018,127.116902 34.8514376,117.122634 34.7389562,113.641636 C34.6264747,110.160301 37.1034308,100.278551 38.5670406,92.4180918 C40.0309882,84.5572953 39.254765,78.0682808 38.4545592,74.7877273 C37.4412129,70.6329658 33.3878278,62.4356245 33.1625271,60.7512163 C32.9375643,59.066808 34.7389562,43.9071336 35.5270018,43.7946151 C36.3153852,43.6824335 36.9909494,46.0406051 37.1034308,47.7250133 C37.2908999,50.5282056 38.4545592,56.9329996 38.4545592,58.6174079 C38.4545592,60.3018161 43.1835085,75.4614906 43.9715541,77.1458989 C44.7599375,78.8303071 44.0843733,80.7394155 44.0843733,80.7394155 C43.4088091,83.9960504 45.1271066,88.4927468 45.7732838,88.3755119 C47.0115929,88.1508119 45.2382369,83.1858501 46.1110659,83.4344687 C48.4755405,84.108232 47.3932867,90.4062346 49.6013682,91.4074468 C50.8400151,91.9686917 50.3894138,86.6911037 50.2769324,84.4451137" id="Fill-5" fill="#F9F3EC"></path>
                        <path d="M50.2769324,84.4451137 C50.164451,82.1991237 48.8133226,79.2797073 47.6871571,76.6968356 C46.3360287,62.2109245 43.9715541,60.4143346 43.4088091,56.4839364 C42.8457264,52.5535381 42.9582078,39.0782719 41.8323801,36.2710371 C40.9531333,34.0789482 38.9048227,32.2284572 36.4278666,31.5546939 C33.9509105,30.8809306 28.77136,27.9611773 28.77136,27.9611773 L28.77136,23.5817158 L25.9569596,23.1387164 L25.224648,23.023166 L24.493012,22.9079525 L21.677936,23.5817158 L21.677936,27.9611773 C21.677936,27.9611773 16.4987232,30.8809306 14.0217671,31.5546939 C11.5444733,32.2284572 9.49650045,34.0789482 8.61725367,36.2710371 C7.49108818,39.0782719 7.60390739,52.5535381 7.04082465,56.4839364 C6.4777419,60.4143346 4.11326726,62.2109245 2.76213889,76.6968356 C1.63631118,79.2797073 0.285182813,82.1991237 0.172701377,84.4451137 C0.0598821583,86.6911037 -0.39038137,91.9686917 0.84826556,91.4074468 C3.05600931,90.4062346 1.97409327,84.108232 4.33856791,83.4344687 C5.21139684,83.1858501 3.43770308,88.1508119 4.67635001,88.3755119 C5.32218937,88.4927468 7.04082465,83.9960504 6.36526046,80.7394155 C6.36526046,80.7394155 5.68969628,78.8303071 6.4777419,77.1458989 C7.2661253,75.4614906 11.9950746,60.3018161 11.9950746,58.6174079 C11.9950746,56.9329996 12.7935915,50.4800315 13.346203,47.7250133 C13.683985,46.0406051 14.1342486,43.6824335 14.9222942,43.7946151 C15.7106776,43.9071336 16.7802083,59.066808 16.5549076,60.7512163 C16.3299448,62.4356245 13.0084209,70.6329658 11.9950746,74.7877273 C11.1948688,78.0682808 10.4186456,84.5572953 11.8822554,92.4180918 C13.346203,100.278551 15.823159,110.160301 15.7106776,113.641636 C15.5978584,117.122634 14.9222942,127.116902 15.9356405,132.057609 C16.9489867,136.998652 19.7640627,146.656038 19.20098,149.800155 C18.6378972,152.944271 16.0484597,153.730553 16.1609411,155.190261 C16.2406577,156.222467 22.2619613,156.767878 23.1418836,155.639324 C23.9299292,154.628679 23.3182059,153.010974 23.9299292,152.270508 C24.6683209,151.377435 23.9880278,149.141214 23.8174478,147.891046 C23.6863883,146.93127 24.1552299,137.110833 23.5921471,127.678147 C23.3840734,124.19378 22.8041015,120.379269 23.3668465,117.571697 C24.1511765,113.661849 24.3801928,101.850778 24.2677113,98.2572615 C24.1542165,94.6290461 23.9903922,85.8482258 23.9431027,83.2633328 C23.9376982,82.9705827 24.2342709,82.7802445 24.506861,82.8893942 C24.6936545,82.9641819 24.9179419,83.0211149 25.1685762,83.0211149 C25.4266417,83.0211149 25.7042986,82.9368945 25.9404082,82.8385251 C26.2126606,82.7256697 26.5126111,82.9197135 26.5072066,83.2141481 C26.461606,85.7340229 26.2960928,94.6054644 26.1819224,98.2572615 C26.0691032,101.850778 26.2984573,113.661849 27.0824495,117.571697 C27.6455322,120.379269 27.0652226,124.19378 26.8574866,127.678147 C26.2944039,137.110833 26.7632454,146.93127 26.632186,147.891046 C26.461606,149.141214 25.7813129,151.377435 26.5197045,152.270508 C27.1314279,153.010974 26.5197045,154.628679 27.3077502,155.639324 C28.1873347,156.767878 34.2089761,156.222467 34.2886926,155.190261 C34.4011741,153.730553 31.8113988,152.944271 31.2486538,149.800155 C30.6855711,146.656038 33.5003092,136.998652 34.5136555,132.057609 C35.5270018,127.116902 34.8514376,117.122634 34.7389562,113.641636 C34.6264747,110.160301 37.1034308,100.278551 38.5670406,92.4180918 C40.0309882,84.5572953 39.254765,78.0682808 38.4545592,74.7877273 C37.4412129,70.6329658 34.119689,62.4356245 33.8943883,60.7512163 C33.6694255,59.066808 34.7389562,43.9071336 35.5270018,43.7946151 C36.3153852,43.6824335 36.9909494,46.0406051 37.1034308,47.7250133 C37.2908999,50.5282056 38.4545592,56.9329996 38.4545592,58.6174079 C38.4545592,60.3018161 43.1835085,75.4614906 43.9715541,77.1458989 C44.7599375,78.8303071 44.0843733,80.7394155 44.0843733,80.7394155 C43.4088091,83.9960504 45.1271066,88.4927468 45.7732838,88.3755119 C47.0115929,88.1508119 45.2382369,83.1858501 46.1110659,83.4344687 C48.4755405,84.108232 47.3932867,90.4062346 49.6013682,91.4074468 C50.8400151,91.9686917 50.3894138,86.6911037 50.2769324,84.4451137 Z" id="Stroke-7" stroke="#F3807B" stroke-linecap="round" stroke-linejoin="round"></path>
                        <g id="face" transform="translate(14.524630, 0.000000)">
                            <path d="M11.2592905,1.34752662 C17.3434215,1.34752662 19.5913613,8.75892302 19.2535792,14.0368479 C18.9157971,19.3144359 14.9748935,25.1539425 10.8090269,25.1539425 C6.64282262,25.1539425 2.36447464,20.5497809 2.36447464,14.7106112 C2.36447464,8.87110461 3.94056588,1.34752662 11.2592905,1.34752662" id="Fill-11" fill="#F9F3EC"></path>
                            <path d="M11.2592905,1.34752662 C17.3434215,1.34752662 19.5913613,8.75892302 19.2535792,14.0368479 C18.9157971,19.3144359 14.9748935,25.1539425 10.8090269,25.1539425 C6.64282262,25.1539425 2.36447464,20.5497809 2.36447464,14.7106112 C2.36447464,8.87110461 3.94056588,1.34752662 11.2592905,1.34752662 Z" id="Stroke-13" stroke="#F3807B" stroke-linecap="round" stroke-linejoin="round"></path>
                            <path d="M11.5523163,0.0373286304 C11.5523163,0.0373286304 4.07348299,-0.743563045 1.16551696,4.83789221 C-0.326466537,7.70138627 0.0396892507,12.2213274 0.0396892507,12.2213274 C0.0396892507,12.2213274 10.9611976,9.89111702 12.8189991,5.17477386 C14.3390185,9.80689661 20.8413238,13.5125948 20.8413238,13.5125948 C20.8413238,13.5125948 23.1213529,0.879532767 11.5523163,0.0373286304" id="Fill-15" fill="#F9F3EC"></path>
                            <path d="M11.5523163,0.0373286304 C11.5523163,0.0373286304 4.07348299,-0.743563045 1.16551696,4.83789221 C-0.326466537,7.70138627 0.0396892507,12.2213274 0.0396892507,12.2213274 C0.0396892507,12.2213274 10.9611976,9.89111702 12.8189991,5.17477386 C14.3390185,9.80689661 20.8413238,13.5125948 20.8413238,13.5125948 C20.8413238,13.5125948 23.1213529,0.879532767 11.5523163,0.0373286304 Z" id="Stroke-17" stroke="#F3807B" stroke-linecap="round" stroke-linejoin="round"></path>
                            <path d="M8.1067702,20.3496732 C8.1067702,20.3496732 10.1581208,20.9344998 10.8404407,20.8869995 C11.5278272,20.8391623 13.5119592,20.2128993 13.5119592,20.2128993" id="Stroke-25" stroke="#F3807B" stroke-linecap="round" stroke-linejoin="round"></path>
                            <path d="M4.0533851,14.1977041 C4.22227615,13.3555 7.76898811,12.2404217 8.36010677,14.345932" id="Stroke-29" stroke="#F3807B" stroke-linecap="round" stroke-linejoin="round"></path>
                            <path d="M17.8180053,14.1977041 C17.6491143,13.3555 14.1024023,12.2404217 13.5112837,14.345932" id="Stroke-33" stroke="#F3807B" stroke-linecap="round" stroke-linejoin="round"></path>
                            <path d="M13.1735016,11.7002063 C13.1735016,11.7002063 15.4535307,10.2886722 16.9735501,10.9624355 C18.4935695,11.6361988 18.3810881,11.5880248 18.3810881,11.5880248" id="Stroke-37" stroke="#F3807B" stroke-linecap="round" stroke-linejoin="round"></path>
                            <path d="M8.27363455,12.0185893 C8.27363455,12.0185893 6.01454793,10.6565768 4.47358602,11.2808185 C3.06841252,11.8501485 3.04003883,11.9064077 3.04003883,11.9064077" id="Stroke-41" stroke="#F3807B" stroke-linecap="round" stroke-linejoin="round"></path>
                            <path d="M15.8193487,14.1210683 C15.8193487,14.477826 15.5295317,14.7668704 15.1718204,14.7668704 C14.814447,14.7668704 14.5246299,14.477826 14.5246299,14.1210683 C14.5246299,13.7643106 14.814447,13.4752662 15.1718204,13.4752662 C15.5295317,13.4752662 15.8193487,13.7643106 15.8193487,14.1210683 Z" id="Stroke-43" stroke="#F3807B" stroke-linecap="round" stroke-linejoin="round"></path>
                            <path d="M7.03701432,14.1210683 C7.03701432,14.477826 6.74719728,14.7668704 6.38948605,14.7668704 C6.03211259,14.7668704 5.74229556,14.477826 5.74229556,14.1210683 C5.74229556,13.7643106 6.03211259,13.4752662 6.38948605,13.4752662 C6.74719728,13.4752662 7.03701432,13.7643106 7.03701432,14.1210683 Z" id="Stroke-45" stroke="#F3807B" stroke-linecap="round" stroke-linejoin="round"></path>
                        </g>
                    </g>
                </g>
            </g>
        </g>
    </g>
</svg>