<?xml version="1.0" encoding="UTF-8"?>
<svg width="48px" height="42px" viewBox="0 0 48 42" version="1.1" xmlns="http://www.w3.org/2000/svg" xmlns:xlink="http://www.w3.org/1999/xlink">
    <!-- Generator: Sketch 44 (41411) - http://www.bohemiancoding.com/sketch -->
    <title>next</title>
    <desc>Created with Sketch.</desc>
    <defs>
        <filter x="-4.3%" y="-10.4%" width="108.6%" height="129.2%" filterUnits="objectBoundingBox" id="filter-1">
            <feOffset dx="0" dy="2" in="SourceAlpha" result="shadowOffsetOuter1"></feOffset>
            <feGaussianBlur stdDeviation="2" in="shadowOffsetOuter1" result="shadowBlurOuter1"></feGaussianBlur>
            <feColorMatrix values="0 0 0 0 0.831372549   0 0 0 0 0.839215686   0 0 0 0 0.874509804  0 0 0 1 0" type="matrix" in="shadowBlurOuter1" result="shadowMatrixOuter1"></feColorMatrix>
            <feMerge>
                <feMergeNode in="shadowMatrixOuter1"></feMergeNode>
                <feMergeNode in="SourceGraphic"></feMergeNode>
            </feMerge>
        </filter>
    </defs>
    <g id="version4" stroke="none" stroke-width="1" fill="none" fill-rule="evenodd">
        <g id="1.9-treatment" transform="translate(-253.000000, -597.000000)" stroke="#F9B763" stroke-width="2" fill="#FFFFFF">
            <g id="Group-3" filter="url(#filter-1)" transform="translate(195.000000, 592.000000)">
                <path d="M63.9357455,39.6997293 C63.6723491,39.9631257 63.450545,40.0532336 63.2703265,39.9700558 C63.0901079,39.886878 63,39.6650739 63,39.3046368 L63,8.69536319 C63,8.3349261 63.0901079,8.11312199 63.2703265,8.0299442 C63.450545,7.94676641 63.6723491,8.03687433 63.9357455,8.30027067 L78.6997293,23.0642545 C78.8106331,23.1751583 78.900741,23.3068545 78.9700558,23.4593471 L78.9700558,8.69536319 C78.9700558,8.3349261 79.0601637,8.11312199 79.2403823,8.0299442 C79.4206008,7.94676641 79.6424049,8.03687433 79.9058013,8.30027067 L94.6697851,23.0642545 C94.7806889,23.1751583 94.8707968,23.3068545 94.9401116,23.4593471 L94.9401116,9.36078218 C94.9401116,9.00034509 95.0718078,8.68843306 95.3352041,8.42503673 C95.5986005,8.16164039 95.9105125,8.0299442 96.2709496,8.0299442 L98.9326255,8.0299442 C99.2930626,8.0299442 99.6049747,8.16164039 99.868371,8.42503673 C100.131767,8.68843306 100.263464,9.00034509 100.263464,9.36078218 L100.263464,38.6392178 C100.263464,38.9996549 100.131767,39.3115669 99.868371,39.5749633 C99.6049747,39.8383596 99.2930626,39.9700558 98.9326255,39.9700558 L96.2709496,39.9700558 C95.9105125,39.9700558 95.5986005,39.8383596 95.3352041,39.5749633 C95.0718078,39.3115669 94.9401116,38.9996549 94.9401116,38.6392178 L94.9401116,24.5406529 C94.8707968,24.6792826 94.7806889,24.8109788 94.6697851,24.9357455 L79.9058013,39.6997293 C79.6424049,39.9631257 79.4206008,40.0532336 79.2403823,39.9700558 C79.0601637,39.886878 78.9700558,39.6650739 78.9700558,39.3046368 L78.9700558,24.5406529 C78.900741,24.6792826 78.8106331,24.8109788 78.6997293,24.9357455 L63.9357455,39.6997293 Z" id="next"></path>
            </g>
        </g>
    </g>
</svg>