<?xml version="1.0" encoding="UTF-8"?>
<svg width="76px" height="78px" viewBox="0 0 76 78" version="1.1" xmlns="http://www.w3.org/2000/svg" xmlns:xlink="http://www.w3.org/1999/xlink">
    <!-- Generator: Sketch 43.2 (39069) - http://www.bohemiancoding.com/sketch -->
    <title>face</title>
    <desc>Created with Sketch.</desc>
    <defs>
        <linearGradient x1="50.000006%" y1="98.1741483%" x2="50%" y2="0%" id="linearGradient-1">
            <stop stop-color="#2A3562" offset="0%"></stop>
            <stop stop-color="#3D679A" offset="48.7224968%"></stop>
            <stop stop-color="#65A1C8" offset="100%"></stop>
        </linearGradient>
        <linearGradient x1="50%" y1="100%" x2="50%" y2="-5.14824979%" id="linearGradient-2">
            <stop stop-color="#7E4477" offset="0%"></stop>
            <stop stop-color="#F3807B" offset="100%"></stop>
        </linearGradient>
        <filter x="-7.4%" y="-7.2%" width="114.9%" height="114.5%" filterUnits="objectBoundingBox" id="filter-3">
            <feGaussianBlur stdDeviation="2.36328125" in="SourceGraphic"></feGaussianBlur>
        </filter>
    </defs>
    <g id="flow5" stroke="none" stroke-width="1" fill="none" fill-rule="evenodd">
        <g id="3.2-symptom" transform="translate(-74.000000, -146.000000)">
            <g id="body_whole" transform="translate(37.000000, 138.000000)">
                <g id="body-copy">
                    <rect id="Rectangle-18" fill="#FFFFFF" x="0" y="0" width="317" height="452"></rect>
                    <g id="Page-1" transform="translate(5.615385, 13.382812)">
                        <path d="M39.8489168,28.6083984 C39.8489168,28.6083984 41.4643014,69.4445801 36.1566091,89.9780273 C32.0424552,105.894448 110.427378,104.510171 101.92584,90.4394531 C97.9353783,83.8336816 97.1323014,28.2208008 96.6181475,27.2241211 L75.8489168,6.45996094 L39.8489168,28.6083984 Z" id="Fill-1" fill="#FEFEFE"></path>
                        <path d="M39.8489168,28.6083984 C39.8489168,28.6083984 41.4643014,69.4445801 36.1566091,89.9780273 C32.0424552,105.894448 110.427378,104.510171 101.92584,90.4394531 C97.9353783,83.8336816 97.1323014,28.2208008 96.6181475,27.2241211 L75.8489168,6.45996094 L39.8489168,28.6083984 Z" id="Stroke-3" stroke="#000000" stroke-width="2" stroke-linecap="round" stroke-linejoin="round"></path>
                        <path d="M137.39472,231.328433 C137.087336,225.175781 133.395028,217.17835 130.31749,210.102847 C126.625182,170.420229 120.163643,165.498662 118.625797,154.731753 C117.087028,143.964844 117.394413,107.050781 114.317797,99.3606592 C111.915028,93.3556641 106.31749,88.2864404 99.5485666,86.4407373 C92.7796435,84.5950342 78.6251819,76.5966797 78.6251819,76.5966797 L78.6251819,64.5996094 L70.934105,63.3860596 L70.9331819,62.7539063 L68.9328743,63.0695215 L66.9334896,62.7539063 L66.9325666,63.3860596 L59.2405666,64.5996094 L59.2405666,76.5966797 C59.2405666,76.5966797 45.0870281,84.5950342 38.318105,86.4407373 C31.5482589,88.2864404 25.9516435,93.3556641 23.5488743,99.3606592 C20.4713358,107.050781 20.7796435,143.964844 19.2408743,154.731753 C17.702105,165.498662 11.2405666,170.420229 7.54825887,210.102847 C4.47164348,217.17835 0.779335792,225.175781 0.471951177,231.328433 C0.163643484,237.481084 -1.06681805,251.938477 2.31810502,250.401006 C8.35133579,247.658291 5.39472041,230.405581 11.8562589,228.559878 C14.2414896,227.878813 9.39441272,241.4798 12.7793358,242.095342 C14.5442589,242.416494 19.2408743,230.098271 17.3947204,221.177065 C17.3947204,221.177065 15.5485666,215.947266 17.702105,211.333008 C19.8565666,206.71875 32.7796435,165.19043 32.7796435,160.576172 C32.7796435,155.961914 34.9617973,138.284692 36.4719512,130.737612 C37.3950281,126.123354 38.6254896,119.663394 40.7790281,119.970703 C42.9334896,120.278936 47.8562589,161.807256 47.2405666,166.421514 C46.6257973,171.035771 35.5488743,193.491519 32.7796435,204.873047 C30.5928743,213.859775 28.4716435,231.635742 32.4713358,253.169561 C36.4719512,274.702456 43.2408743,301.772461 42.9334896,311.309209 C42.6251819,320.845034 40.7790281,348.223271 43.5482589,361.757813 C46.3174896,375.293276 54.0104127,401.748662 52.4716435,410.361636 C50.9328743,418.974609 43.8565666,421.128545 44.1639512,425.127261 C44.3817973,427.954878 60.8365666,429.448975 63.2411819,426.357422 C65.3947204,423.588867 63.7230281,419.157334 65.3947204,417.128906 C67.4125666,414.682427 65.5534896,408.556538 65.0873358,405.131836 C64.7291819,402.502632 66.0104127,375.600586 64.4716435,349.760742 C63.9030281,340.215688 62.318105,329.76624 63.8559512,322.075195 C65.9993358,311.36458 66.6251819,279.009404 66.3177973,269.165347 C66.0076435,259.226235 65.5599512,235.172109 65.4307204,228.091069 C65.4159512,227.289111 66.2264127,226.7677 66.9713358,227.066704 C67.4817973,227.271577 68.0947204,227.427539 68.7796435,227.427539 C69.4848743,227.427539 70.2436435,227.196826 70.8888743,226.927354 C71.6328743,226.618198 72.4525666,227.149761 72.4377973,227.956333 C72.3131819,234.859263 71.8608743,259.161636 71.5488743,269.165347 C71.2405666,279.009404 71.8673358,311.36458 74.0097973,322.075195 C75.5485666,329.76624 73.9627204,340.215688 73.3950281,349.760742 C71.8562589,375.600586 73.1374896,402.502632 72.7793358,405.131836 C72.3131819,408.556538 70.454105,414.682427 72.4719512,417.128906 C74.1436435,419.157334 72.4719512,423.588867 74.6254896,426.357422 C77.0291819,429.448975 93.4848743,427.954878 93.7027204,425.127261 C94.010105,421.128545 86.9328743,418.974609 85.3950281,410.361636 C83.8562589,401.748662 91.5482589,375.293276 94.3174896,361.757813 C97.0867204,348.223271 95.2405666,320.845034 94.9331819,311.309209 C94.6257973,301.772461 101.39472,274.702456 105.394413,253.169561 C109.395028,231.635742 107.273797,213.859775 105.087028,204.873047 C102.317797,193.491519 91.2408743,171.035771 90.6251819,166.421514 C90.0104127,161.807256 94.9331819,120.278936 97.0867204,119.970703 C99.2411819,119.663394 101.087336,126.123354 101.39472,130.737612 C101.907028,138.41666 105.087028,155.961914 105.087028,160.576172 C105.087028,165.19043 118.010105,206.71875 120.163643,211.333008 C122.318105,215.947266 120.471951,221.177065 120.471951,221.177065 C118.625797,230.098271 123.32149,242.416494 125.087336,242.095342 C128.471336,241.4798 123.625182,227.878813 126.010413,228.559878 C132.471951,230.405581 129.514413,247.658291 135.548567,250.401006 C138.93349,251.938477 137.702105,237.481084 137.39472,231.328433" id="Fill-5" fill="#FEFEFE"></path>
                        <path d="M137.39472,231.328433 C137.087336,225.175781 133.395028,217.17835 130.31749,210.102847 C126.625182,170.420229 120.163643,165.498662 118.625797,154.731753 C117.087028,143.964844 117.394413,107.050781 114.317797,99.3606592 C111.915028,93.3556641 106.31749,88.2864404 99.5485666,86.4407373 C92.7796435,84.5950342 78.6251819,76.5966797 78.6251819,76.5966797 L78.6251819,64.5996094 L70.934105,63.3860596 L68.9328743,63.0695215 L66.9334896,62.7539063 L59.2405666,64.5996094 L59.2405666,76.5966797 C59.2405666,76.5966797 45.0870281,84.5950342 38.318105,86.4407373 C31.5482589,88.2864404 25.9516435,93.3556641 23.5488743,99.3606592 C20.4713358,107.050781 20.7796435,143.964844 19.2408743,154.731753 C17.702105,165.498662 11.2405666,170.420229 7.54825887,210.102847 C4.47164348,217.17835 0.779335792,225.175781 0.471951177,231.328433 C0.163643484,237.481084 -1.06681805,251.938477 2.31810502,250.401006 C8.35133579,247.658291 5.39472041,230.405581 11.8562589,228.559878 C14.2414896,227.878813 9.39441272,241.4798 12.7793358,242.095342 C14.5442589,242.416494 19.2408743,230.098271 17.3947204,221.177065 C17.3947204,221.177065 15.5485666,215.947266 17.702105,211.333008 C19.8565666,206.71875 32.7796435,165.19043 32.7796435,160.576172 C32.7796435,155.961914 34.9617973,138.284692 36.4719512,130.737612 C37.3950281,126.123354 38.6254896,119.663394 40.7790281,119.970703 C42.9334896,120.278936 45.8562589,161.807256 45.2405666,166.421514 C44.6257973,171.035771 35.5488743,193.491519 32.7796435,204.873047 C30.5928743,213.859775 28.4716435,231.635742 32.4713358,253.169561 C36.4719512,274.702456 43.2408743,301.772461 42.9334896,311.309209 C42.6251819,320.845034 40.7790281,348.223271 43.5482589,361.757813 C46.3174896,375.293276 54.0104127,401.748662 52.4716435,410.361636 C50.9328743,418.974609 43.8565666,421.128545 44.1639512,425.127261 C44.3817973,427.954878 60.8365666,429.448975 63.2411819,426.357422 C65.3947204,423.588867 63.7230281,419.157334 65.3947204,417.128906 C67.4125666,414.682427 65.5534896,408.556538 65.0873358,405.131836 C64.7291819,402.502632 66.0104127,375.600586 64.4716435,349.760742 C63.9030281,340.215688 62.318105,329.76624 63.8559512,322.075195 C65.9993358,311.36458 66.6251819,279.009404 66.3177973,269.165347 C66.0076435,259.226235 65.5599512,235.172109 65.4307204,228.091069 C65.4159512,227.289111 66.2264127,226.7677 66.9713358,227.066704 C67.4817973,227.271577 68.0947204,227.427539 68.7796435,227.427539 C69.4848743,227.427539 70.2436435,227.196826 70.8888743,226.927354 C71.6328743,226.618198 72.4525666,227.149761 72.4377973,227.956333 C72.3131819,234.859263 71.8608743,259.161636 71.5488743,269.165347 C71.2405666,279.009404 71.8673358,311.36458 74.0097973,322.075195 C75.5485666,329.76624 73.9627204,340.215688 73.3950281,349.760742 C71.8562589,375.600586 73.1374896,402.502632 72.7793358,405.131836 C72.3131819,408.556538 70.454105,414.682427 72.4719512,417.128906 C74.1436435,419.157334 72.4719512,423.588867 74.6254896,426.357422 C77.0291819,429.448975 93.4848743,427.954878 93.7027204,425.127261 C94.010105,421.128545 86.9328743,418.974609 85.3950281,410.361636 C83.8562589,401.748662 91.5482589,375.293276 94.3174896,361.757813 C97.0867204,348.223271 95.2405666,320.845034 94.9331819,311.309209 C94.6257973,301.772461 101.39472,274.702456 105.394413,253.169561 C109.395028,231.635742 107.273797,213.859775 105.087028,204.873047 C102.317797,193.491519 93.2408743,171.035771 92.6251819,166.421514 C92.0104127,161.807256 94.9331819,120.278936 97.0867204,119.970703 C99.2411819,119.663394 101.087336,126.123354 101.39472,130.737612 C101.907028,138.41666 105.087028,155.961914 105.087028,160.576172 C105.087028,165.19043 118.010105,206.71875 120.163643,211.333008 C122.318105,215.947266 120.471951,221.177065 120.471951,221.177065 C118.625797,230.098271 123.32149,242.416494 125.087336,242.095342 C128.471336,241.4798 123.625182,227.878813 126.010413,228.559878 C132.471951,230.405581 129.514413,247.658291 135.548567,250.401006 C138.93349,251.938477 137.702105,237.481084 137.39472,231.328433 Z" id="Stroke-7" stroke="#000000" stroke-width="2" stroke-linecap="round" stroke-linejoin="round"></path>
                        <g id="face" transform="translate(39.692308, 0.000000)">
                            <path d="M30.7689231,3.69140625 C47.3953846,3.69140625 53.5384615,23.9941406 52.6153846,38.4524561 C51.6923077,52.9098486 40.9227692,68.9065576 29.5384615,68.9065576 C18.1532308,68.9065576 6.46153846,56.2939453 6.46153846,40.2981592 C6.46153846,24.3014502 10.7686154,3.69140625 30.7689231,3.69140625" id="Fill-11" fill="#FEFEFE"></path>
                            <path d="M30.7689231,3.69140625 C47.3953846,3.69140625 53.5384615,23.9941406 52.6153846,38.4524561 C51.6923077,52.9098486 40.9227692,68.9065576 29.5384615,68.9065576 C18.1532308,68.9065576 6.46153846,56.2939453 6.46153846,40.2981592 C6.46153846,24.3014502 10.7686154,3.69140625 30.7689231,3.69140625 Z" id="Stroke-13" stroke="#000000" stroke-width="2" stroke-linecap="round" stroke-linejoin="round"></path>
                            <path d="M31.5696919,0.102257824 C31.5696919,0.102257824 11.1318458,-2.0369121 3.18507653,13.2528926 C-0.892154243,21.0971309 0.108461142,33.4790303 0.108461142,33.4790303 C0.108461142,33.4790303 29.9543073,27.095666 35.0312304,14.1757442 C39.1850765,26.8649531 56.9543073,37.0163203 56.9543073,37.0163203 C56.9543073,37.0163203 63.1850765,2.40938673 31.5696919,0.102257824" id="Fill-15" fill="#FEFEFE"></path>
                            <path d="M31.5696919,0.102257824 C31.5696919,0.102257824 11.1318458,-2.0369121 3.18507653,13.2528926 C-0.892154243,21.0971309 0.108461142,33.4790303 0.108461142,33.4790303 C0.108461142,33.4790303 29.9543073,27.095666 35.0312304,14.1757442 C39.1850765,26.8649531 56.9543073,37.0163203 56.9543073,37.0163203 C56.9543073,37.0163203 63.1850765,2.40938673 31.5696919,0.102257824 Z" id="Stroke-17" stroke="#000000" stroke-width="2" stroke-linecap="round" stroke-linejoin="round"></path>
                            <path d="M22.1538462,55.7457715 C22.1538462,55.7457715 27.7596923,57.3478418 29.6243077,57.2177197 C31.5027692,57.0866748 36.9249231,55.3710938 36.9249231,55.3710938" id="Stroke-25" stroke="#000000" stroke-width="2" stroke-linecap="round" stroke-linejoin="round"></path>
                            <path d="M11.0769231,38.8931045 C11.5384615,36.5859756 21.2307692,33.531337 22.8461538,39.2991592" id="Stroke-29" stroke="#000000" stroke-width="2" stroke-linecap="round" stroke-linejoin="round"></path>
                            <path d="M48.6923077,38.8931045 C48.2307692,36.5859756 38.5384615,33.531337 36.9230769,39.2991592" id="Stroke-33" stroke="#000000" stroke-width="2" stroke-linecap="round" stroke-linejoin="round"></path>
                            <path d="M36,32.0514744 C36,32.0514744 42.2307692,28.1847263 46.3846154,30.0304294 C50.5384615,31.8761326 50.2310769,31.7441648 50.2310769,31.7441648" id="Stroke-37" stroke="#000000" stroke-width="2" stroke-linecap="round" stroke-linejoin="round"></path>
                            <path d="M22.6098462,32.9236508 C22.6098462,32.9236508 16.4363077,29.1925619 12.2252308,30.9026059 C8.38523077,32.462225 8.30769231,32.6163412 8.30769231,32.6163412" id="Stroke-41" stroke="#000000" stroke-width="2" stroke-linecap="round" stroke-linejoin="round"></path>
                            <path d="M43.2304615,38.6831689 C43.2304615,39.6604688 42.4384615,40.4522754 41.4609231,40.4522754 C40.4843077,40.4522754 39.6923077,39.6604688 39.6923077,38.6831689 C39.6923077,37.7058691 40.4843077,36.9140625 41.4609231,36.9140625 C42.4384615,36.9140625 43.2304615,37.7058691 43.2304615,38.6831689 Z" id="Stroke-43" stroke="#000000" stroke-width="2" stroke-linecap="round" stroke-linejoin="round"></path>
                            <path d="M19.2304615,38.6831689 C19.2304615,39.6604688 18.4384615,40.4522754 17.4609231,40.4522754 C16.4843077,40.4522754 15.6923077,39.6604688 15.6923077,38.6831689 C15.6923077,37.7058691 16.4843077,36.9140625 17.4609231,36.9140625 C18.4384615,36.9140625 19.2304615,37.7058691 19.2304615,38.6831689 Z" id="Stroke-45" stroke="#000000" stroke-width="2" stroke-linecap="round" stroke-linejoin="round"></path>
                        </g>
                    </g>
                </g>
                <g id="Group-11" style="mix-blend-mode: lighten;" transform="translate(4.000000, 9.000000)">
                    <rect id="Rectangle-14" fill="url(#linearGradient-1)" x="0" y="1" width="293" height="432"></rect>
                    <ellipse id="Oval-15" fill="url(#linearGradient-2)" filter="url(#filter-3)" cx="71.4354628" cy="50.004472" rx="47.6745763" ry="49.0320582"></ellipse>
                </g>
            </g>
        </g>
    </g>
</svg>